<?xml version="1.0" encoding="UTF-8" standalone="no"?>
<svg
   width="700"
   height="90"
   enable-background="new 0 0 259.9 40"
   version="1.1"
   viewBox="0 0 700.00001 90"
   id="svg268"
   sodipodi:docname="startx.svg"
   inkscape:version="1.1.2 (0a00cf5339, 2022-02-04)"
   xmlns:inkscape="http://www.inkscape.org/namespaces/inkscape"
   xmlns:sodipodi="http://sodipodi.sourceforge.net/DTD/sodipodi-0.dtd"
   xmlns:xlink="http://www.w3.org/1999/xlink"
   xmlns="http://www.w3.org/2000/svg"
   xmlns:svg="http://www.w3.org/2000/svg"
   xmlns:rdf="http://www.w3.org/1999/02/22-rdf-syntax-ns#"
   xmlns:cc="http://creativecommons.org/ns#"
   xmlns:dc="http://purl.org/dc/elements/1.1/">
  <defs
     id="defs272">
    <linearGradient
       inkscape:collect="always"
       id="linearGradient20087">
      <stop
         style="stop-color:#05b233;stop-opacity:1"
         offset="0"
         id="stop20083" />
      <stop
         style="stop-color:#f7ed10;stop-opacity:1"
         offset="1"
         id="stop20085" />
    </linearGradient>
    <linearGradient
       inkscape:collect="always"
       xlink:href="#linearGradient20087"
       id="linearGradient20089"
       x1="158.41335"
       y1="29.12719"
       x2="276.18388"
       y2="29.12719"
       gradientUnits="userSpaceOnUse" />
    <linearGradient
       inkscape:collect="always"
       xlink:href="#linearGradient20087"
       id="linearGradient22927"
       gradientUnits="userSpaceOnUse"
       x1="158.41335"
       y1="29.12719"
       x2="276.18388"
       y2="29.12719" />
    <linearGradient
       inkscape:collect="always"
       xlink:href="#linearGradient20087"
       id="linearGradient22929"
       gradientUnits="userSpaceOnUse"
       x1="158.41335"
       y1="29.12719"
       x2="276.18388"
       y2="29.12719" />
    <linearGradient
       inkscape:collect="always"
       xlink:href="#linearGradient20087"
       id="linearGradient22931"
       gradientUnits="userSpaceOnUse"
       x1="158.41335"
       y1="29.12719"
       x2="276.18388"
       y2="29.12719" />
    <linearGradient
       inkscape:collect="always"
       xlink:href="#linearGradient20087"
       id="linearGradient22933"
       gradientUnits="userSpaceOnUse"
       x1="158.41335"
       y1="29.12719"
       x2="276.18388"
       y2="29.12719" />
    <linearGradient
       inkscape:collect="always"
       xlink:href="#linearGradient20087"
       id="linearGradient22935"
       gradientUnits="userSpaceOnUse"
       x1="158.41335"
       y1="29.12719"
       x2="276.18388"
       y2="29.12719" />
    <linearGradient
       inkscape:collect="always"
       xlink:href="#linearGradient20087"
       id="linearGradient22937"
       gradientUnits="userSpaceOnUse"
       x1="158.41335"
       y1="29.12719"
       x2="276.18388"
       y2="29.12719" />
    <linearGradient
       inkscape:collect="always"
       xlink:href="#linearGradient20087"
       id="linearGradient22939"
       gradientUnits="userSpaceOnUse"
       x1="158.41335"
       y1="29.12719"
       x2="276.18388"
       y2="29.12719" />
    <linearGradient
       inkscape:collect="always"
       xlink:href="#linearGradient20087"
       id="linearGradient22941"
       gradientUnits="userSpaceOnUse"
       x1="158.41335"
       y1="29.12719"
       x2="276.18388"
       y2="29.12719" />
    <linearGradient
       inkscape:collect="always"
       xlink:href="#linearGradient20087"
       id="linearGradient22943"
       gradientUnits="userSpaceOnUse"
       x1="158.41335"
       y1="29.12719"
       x2="276.18388"
       y2="29.12719" />
    <linearGradient
       inkscape:collect="always"
       xlink:href="#linearGradient20087"
       id="linearGradient22945"
       gradientUnits="userSpaceOnUse"
       x1="158.41335"
       y1="29.12719"
       x2="276.18388"
       y2="29.12719" />
    <linearGradient
       inkscape:collect="always"
       xlink:href="#linearGradient20087"
       id="linearGradient22947"
       gradientUnits="userSpaceOnUse"
       x1="158.41335"
       y1="29.12719"
       x2="276.18388"
       y2="29.12719" />
    <linearGradient
       inkscape:collect="always"
       xlink:href="#linearGradient20087"
       id="linearGradient22949"
       gradientUnits="userSpaceOnUse"
       x1="158.41335"
       y1="29.12719"
       x2="276.18388"
       y2="29.12719" />
    <linearGradient
       inkscape:collect="always"
       xlink:href="#linearGradient20087"
       id="linearGradient22951"
       gradientUnits="userSpaceOnUse"
       x1="158.41335"
       y1="29.12719"
       x2="276.18388"
       y2="29.12719" />
  </defs>
  <sodipodi:namedview
     id="namedview270"
     pagecolor="#ffffff"
     bordercolor="#666666"
     borderopacity="1.0"
     inkscape:pageshadow="2"
     inkscape:pageopacity="0"
     inkscape:pagecheckerboard="0"
     showgrid="false"
     inkscape:zoom="1.197576"
     inkscape:cx="418.76256"
     inkscape:cy="222.11534"
     inkscape:window-width="2048"
     inkscape:window-height="1083"
     inkscape:window-x="0"
     inkscape:window-y="0"
     inkscape:window-maximized="1"
     inkscape:current-layer="svg268" />
  <metadata
     id="metadata2">
    <rdf:RDF>
      <cc:Work
         rdf:about="">
        <dc:format>image/svg+xml</dc:format>
        <dc:type
           rdf:resource="http://purl.org/dc/dcmitype/StillImage" />
      </cc:Work>
    </rdf:RDF>
  </metadata>
  <g
     fill="#ffffff"
     aria-label="Container Platform"
     id="g18937"
     transform="matrix(1.4086968,0,0,1.4086968,267.77929,4.451738)"
     style="stroke:#ececec;stroke-width:7.00082;stroke-linejoin:round;stroke-miterlimit:4;stroke-dasharray:none;stroke-opacity:1">
    <g
       aria-label="FruitApp
demo"
       id="g18935"
       style="font-size:26.1364px;line-height:1;fill:#000000;stroke:#ececec;stroke-width:7.00082;stroke-linejoin:round;stroke-miterlimit:4;stroke-dasharray:none;stroke-opacity:1">
      <path
         d="m 159.77244,26.144251 q -0.575,0 -0.96704,-0.392046 -0.39205,-0.392046 -0.39205,-0.967047 V 7.0908151 q 0,-0.6011372 0.39205,-0.9670468 0.39204,-0.392046 0.96704,-0.392046 h 11.81366 q 0.60113,0 0.96704,0.3659096 0.36591,0.3397732 0.36591,0.914774 0,0.5488644 -0.36591,0.8886376 -0.36591,0.3397732 -0.96704,0.3397732 h -10.45456 v 6.3511453 h 7.50114 q 0.575,0 0.94091,0.36591 0.39205,0.339773 0.39205,0.888637 0,0.548865 -0.39205,0.914774 -0.36591,0.339773 -0.94091,0.339773 h -7.50114 v 7.684102 q 0,0.575001 -0.39205,0.967047 -0.39205,0.392046 -0.96705,0.392046 z"
         style="font-weight:bold;font-family:Comfortaa;-inkscape-font-specification:'Comfortaa Bold';stroke:#ececec;stroke-width:7.00082;stroke-linejoin:round;stroke-miterlimit:4;stroke-dasharray:none;stroke-opacity:1"
         id="path18911" />
      <path
         d="m 183.13839,11.690822 q 1.38523,0 2.16932,0.418182 0.78409,0.418182 0.78409,1.045456 0,0.182955 -0.0261,0.261364 -0.23522,0.836365 -1.04545,0.836365 -0.13068,0 -0.39205,-0.05227 -1.04545,-0.182955 -1.69886,-0.182955 -1.88183,0 -3.03183,0.862501 -1.15,0.862502 -1.15,2.32614 v 7.631829 q 0,0.627273 -0.33977,0.967047 -0.31364,0.339773 -0.96705,0.339773 -0.62727,0 -0.96705,-0.313637 -0.33977,-0.339773 -0.33977,-0.993183 V 13.15446 q 0,-0.627274 0.33977,-0.967047 0.33978,-0.339773 0.96705,-0.339773 1.30682,0 1.30682,1.30682 v 0.496592 q 0.78409,-0.914774 1.93409,-1.437502 1.15001,-0.522728 2.45683,-0.522728 z"
         style="font-weight:bold;font-family:Comfortaa;-inkscape-font-specification:'Comfortaa Bold';stroke:#ececec;stroke-width:7.00082;stroke-linejoin:round;stroke-miterlimit:4;stroke-dasharray:none;stroke-opacity:1"
         id="path18913" />
      <path
         d="m 200.62364,11.821504 q 0.60114,0 0.96705,0.365909 0.36591,0.36591 0.36591,0.967047 v 11.656834 q 0,0.575001 -0.36591,0.967047 -0.36591,0.36591 -0.96705,0.36591 -0.575,0 -0.96705,-0.36591 -0.36591,-0.392046 -0.36591,-0.967047 v -0.2875 q -0.83636,0.836365 -1.98636,1.30682 -1.15,0.444319 -2.45682,0.444319 -1.80341,0 -3.24092,-0.784092 -1.4375,-0.784092 -2.24773,-2.273867 -0.81023,-1.515911 -0.81023,-3.63296 V 13.15446 q 0,-0.575001 0.36591,-0.94091 0.39205,-0.392046 0.96705,-0.392046 0.575,0 0.94091,0.392046 0.39205,0.365909 0.39205,0.94091 v 6.429554 q 0,2.117049 1.12386,3.214778 1.15,1.071592 3.03182,1.071592 1.09773,0 1.98637,-0.444319 0.91478,-0.444319 1.41137,-1.202274 0.52272,-0.757956 0.52272,-1.698866 V 13.15446 q 0,-0.601137 0.36591,-0.967047 0.39205,-0.365909 0.96705,-0.365909 z"
         style="font-weight:bold;font-family:Comfortaa;-inkscape-font-specification:'Comfortaa Bold';stroke:#ececec;stroke-width:7.00082;stroke-linejoin:round;stroke-miterlimit:4;stroke-dasharray:none;stroke-opacity:1"
         id="path18915" />
      <path
         d="m 208.25545,26.144251 q -0.575,0 -0.96705,-0.36591 -0.36591,-0.392046 -0.36591,-0.967047 V 13.180596 q 0,-0.601137 0.36591,-0.967046 0.39205,-0.36591 0.96705,-0.36591 0.60114,0 0.96705,0.36591 0.36591,0.365909 0.36591,0.967046 v 11.630698 q 0,0.575001 -0.36591,0.967047 -0.36591,0.36591 -0.96705,0.36591 z m 0,-16.6227507 q -0.70568,0 -1.22841,-0.4965916 -0.49659,-0.522728 -0.49659,-1.2284108 0,-0.7056828 0.49659,-1.2022744 0.52273,-0.522728 1.22841,-0.522728 0.70568,0 1.20227,0.522728 0.52273,0.4965916 0.52273,1.2022744 0,0.7056828 -0.52273,1.2284108 -0.49659,0.4965916 -1.20227,0.4965916 z"
         style="font-weight:bold;font-family:Comfortaa;-inkscape-font-specification:'Comfortaa Bold';stroke:#ececec;stroke-width:7.00082;stroke-linejoin:round;stroke-miterlimit:4;stroke-dasharray:none;stroke-opacity:1"
         id="path18917" />
      <path
         d="m 220.6441,23.530611 q 0.47046,0 0.78409,0.365909 0.33978,0.36591 0.33978,0.940911 0,0.575001 -0.44432,0.94091 -0.41818,0.36591 -1.09773,0.36591 h -0.47045 q -1.28069,0 -2.35228,-0.65341 -1.04546,-0.679547 -1.64659,-1.829548 -0.60114,-1.150002 -0.60114,-2.587504 v -6.455691 h -1.20228 q -0.54886,0 -0.88863,-0.313636 -0.33978,-0.313637 -0.33978,-0.784092 0,-0.522728 0.33978,-0.836365 0.33977,-0.313637 0.88863,-0.313637 h 1.20228 V 8.6067263 q 0,-0.5750008 0.36591,-0.9409104 0.36591,-0.3659096 0.94091,-0.3659096 0.575,0 0.94091,0.3659096 0.36591,0.3659096 0.36591,0.9409104 v 3.7636417 h 2.22159 q 0.54887,0 0.88864,0.313637 0.33977,0.313637 0.33977,0.836365 0,0.470455 -0.33977,0.784092 -0.33977,0.313636 -0.88864,0.313636 h -2.22159 v 6.455691 q 0,1.045456 0.575,1.751139 0.575,0.705683 1.41137,0.705683 z"
         style="font-weight:bold;font-family:Comfortaa;-inkscape-font-specification:'Comfortaa Bold';stroke:#ececec;stroke-width:7.00082;stroke-linejoin:round;stroke-miterlimit:4;stroke-dasharray:none;stroke-opacity:1"
         id="path18919" />
      <path
         d="m 240.56001,24.236294 q 0.13069,0.339773 0.13069,0.575 0,0.548865 -0.39205,0.940911 -0.39205,0.392046 -0.96705,0.392046 -0.39204,0 -0.75795,-0.209091 -0.33978,-0.235228 -0.49659,-0.627274 l -1.46364,-3.659096 h -9.38297 l -1.48977,3.659096 q -0.18296,0.392046 -0.52273,0.627274 -0.33978,0.209091 -0.73182,0.209091 -0.575,0 -0.96705,-0.392046 -0.36591,-0.418183 -0.36591,-0.967047 0,-0.261364 0.13068,-0.601137 l 7.34433,-17.5375247 q 0.39205,-0.914774 1.28069,-0.914774 0.94091,0 1.28068,0.914774 z m -4.86137,-4.835234 -3.7375,-9.304559 -3.81592,9.304559 z"
         style="font-weight:bold;font-family:Comfortaa;-inkscape-font-specification:'Comfortaa Bold';stroke:#ececec;stroke-width:7.00082;stroke-linejoin:round;stroke-miterlimit:4;stroke-dasharray:none;stroke-opacity:1"
         id="path18921" />
      <path
         d="m 250.59637,11.743094 q 2.01251,0 3.6591,0.967047 1.67273,0.940911 2.61364,2.61364 0.94091,1.646593 0.94091,3.685233 0,2.038639 -0.88864,3.711368 -0.8625,1.646594 -2.40455,2.587504 -1.51591,0.94091 -3.39773,0.94091 -1.51591,0 -2.82273,-0.627273 -1.30682,-0.627274 -2.22159,-1.751139 v 7.056828 q 0,0.601137 -0.36591,0.967047 -0.36591,0.36591 -0.96705,0.36591 -0.575,0 -0.96705,-0.36591 -0.36591,-0.36591 -0.36591,-0.967047 V 19.009014 q 0,-2.03864 0.94091,-3.685233 0.96705,-1.672729 2.58751,-2.61364 1.64659,-0.967047 3.65909,-0.967047 z m 0,12.153426 q 1.30682,0 2.35228,-0.627273 1.07159,-0.65341 1.67273,-1.751139 0.62727,-1.123865 0.62727,-2.509094 0,-1.38523 -0.62727,-2.509095 -0.60114,-1.123865 -1.67273,-1.751139 -1.04546,-0.65341 -2.35228,-0.65341 -1.30682,0 -2.37841,0.65341 -1.04546,0.627274 -1.64659,1.751139 -0.60114,1.123865 -0.60114,2.509095 0,1.385229 0.60114,2.509094 0.60113,1.097729 1.64659,1.751139 1.07159,0.627273 2.37841,0.627273 z"
         style="font-weight:bold;font-family:Comfortaa;-inkscape-font-specification:'Comfortaa Bold';stroke:#ececec;stroke-width:7.00082;stroke-linejoin:round;stroke-miterlimit:4;stroke-dasharray:none;stroke-opacity:1"
         id="path18923" />
      <path
         d="m 268.97024,11.743094 q 2.0125,0 3.65909,0.967047 1.67273,0.940911 2.61364,2.61364 0.94091,1.646593 0.94091,3.685233 0,2.038639 -0.88863,3.711368 -0.86251,1.646594 -2.40455,2.587504 -1.51591,0.94091 -3.39774,0.94091 -1.51591,0 -2.82273,-0.627273 -1.30682,-0.627274 -2.22159,-1.751139 v 7.056828 q 0,0.601137 -0.36591,0.967047 -0.36591,0.36591 -0.96705,0.36591 -0.575,0 -0.96704,-0.36591 -0.36591,-0.36591 -0.36591,-0.967047 V 19.009014 q 0,-2.03864 0.94091,-3.685233 0.96704,-1.672729 2.5875,-2.61364 1.64659,-0.967047 3.6591,-0.967047 z m 0,12.153426 q 1.30682,0 2.35227,-0.627273 1.07159,-0.65341 1.67273,-1.751139 0.62728,-1.123865 0.62728,-2.509094 0,-1.38523 -0.62728,-2.509095 -0.60114,-1.123865 -1.67273,-1.751139 -1.04545,-0.65341 -2.35227,-0.65341 -1.30682,0 -2.37842,0.65341 -1.04545,0.627274 -1.64659,1.751139 -0.60114,1.123865 -0.60114,2.509095 0,1.385229 0.60114,2.509094 0.60114,1.097729 1.64659,1.751139 1.0716,0.627273 2.37842,0.627273 z"
         style="font-weight:bold;font-family:Comfortaa;-inkscape-font-specification:'Comfortaa Bold';stroke:#ececec;stroke-width:7.00082;stroke-linejoin:round;stroke-miterlimit:4;stroke-dasharray:none;stroke-opacity:1"
         id="path18925" />
      <path
         d="m 172.13496,32.005583 q 0.60114,0 0.96705,0.365909 0.36591,0.36591 0.36591,0.967047 v 11.918199 q 0,2.038639 -0.96705,3.711369 -0.94091,1.646593 -2.5875,2.61364 -1.62046,0.94091 -3.63296,0.94091 -2.01251,0 -3.68523,-0.94091 -1.6466,-0.967047 -2.58751,-2.61364 -0.94091,-1.67273 -0.94091,-3.711369 0,-2.038639 0.8625,-3.685233 0.88864,-1.672729 2.40455,-2.61364 1.54205,-0.94091 3.42387,-0.94091 1.51591,0 2.82273,0.627274 1.30682,0.627273 2.22159,1.751138 v -7.056828 q 0,-0.601137 0.36591,-0.967047 0.39205,-0.365909 0.96705,-0.365909 z m -5.85455,18.164798 q 1.30682,0 2.35227,-0.627274 1.0716,-0.65341 1.67273,-1.777275 0.60114,-1.123865 0.60114,-2.509094 0,-1.385229 -0.60114,-2.482958 -0.60113,-1.123865 -1.67273,-1.751139 -1.04545,-0.65341 -2.35227,-0.65341 -1.30682,0 -2.37841,0.65341 -1.04546,0.627274 -1.67273,1.751139 -0.60114,1.097729 -0.60114,2.482958 0,1.385229 0.60114,2.509094 0.62727,1.123865 1.67273,1.777275 1.07159,0.627274 2.37841,0.627274 z"
         style="font-weight:bold;font-family:Comfortaa;-inkscape-font-specification:'Comfortaa Bold';stroke:#ececec;stroke-width:7.00082;stroke-linejoin:round;stroke-miterlimit:4;stroke-dasharray:none;stroke-opacity:1"
         id="path18927" />
      <path
         d="m 191.00542,45.047647 q 0,0.496591 -0.33977,0.836364 -0.33978,0.313637 -0.8625,0.313637 h -9.93184 q 0.2875,1.829548 1.6466,2.953413 1.38523,1.123866 3.37159,1.123866 0.78409,0 1.62046,-0.287501 0.8625,-0.2875 1.41136,-0.705683 0.36591,-0.2875 0.86251,-0.2875 0.49659,0 0.78409,0.261364 0.47045,0.392046 0.47045,0.888638 0,0.470455 -0.41818,0.784092 -0.88864,0.705682 -2.22159,1.150001 -1.30682,0.444319 -2.5091,0.444319 -2.14318,0 -3.84205,-0.914774 -1.69886,-0.94091 -2.66591,-2.587504 -0.94091,-1.646593 -0.94091,-3.737505 0,-2.090912 0.88864,-3.737505 0.91477,-1.67273 2.50909,-2.587504 1.62046,-0.94091 3.6591,-0.94091 2.0125,0 3.47614,0.888638 1.46364,0.888637 2.24773,2.482958 0.78409,1.59432 0.78409,3.659096 z m -6.50796,-4.782962 q -1.90796,0 -3.11024,1.045456 -1.17613,1.045456 -1.48977,2.796595 h 8.70342 q -0.23523,-1.751139 -1.30682,-2.796595 -1.07159,-1.045456 -2.79659,-1.045456 z"
         style="font-weight:bold;font-family:Comfortaa;-inkscape-font-specification:'Comfortaa Bold';stroke:#ececec;stroke-width:7.00082;stroke-linejoin:round;stroke-miterlimit:4;stroke-dasharray:none;stroke-opacity:1"
         id="path18929" />
      <path
         d="m 209.43159,37.990819 q 2.27387,0 3.6591,1.489774 1.41136,1.489775 1.41136,4.155688 v 7.47501 q 0,0.575001 -0.36591,0.967047 -0.36591,0.36591 -0.96704,0.36591 -0.57501,0 -0.96705,-0.36591 -0.36591,-0.392046 -0.36591,-0.967047 v -7.47501 q 0,-1.59432 -0.81023,-2.404549 -0.78409,-0.836365 -2.11705,-0.836365 -1.35909,0 -2.24773,0.940911 -0.8625,0.94091 -0.8625,2.404549 v 7.370464 q 0,0.575001 -0.36591,0.967047 -0.36591,0.36591 -0.96705,0.36591 -0.575,0 -0.96704,-0.36591 -0.36591,-0.392046 -0.36591,-0.967047 v -7.47501 q 0,-1.59432 -0.81023,-2.404549 -0.78409,-0.836365 -2.11705,-0.836365 -1.38523,0 -2.27387,0.940911 -0.8625,0.94091 -0.8625,2.404549 v 7.370464 q 0,0.575001 -0.36591,0.967047 -0.36591,0.36591 -0.96704,0.36591 -0.575,0 -0.96705,-0.36591 -0.36591,-0.392046 -0.36591,-0.967047 V 39.480593 q 0,-0.601137 0.36591,-0.967046 0.39205,-0.36591 0.96705,-0.36591 0.575,0 0.94091,0.36591 0.36591,0.339773 0.39204,0.914774 0.67955,-0.679547 1.62046,-1.045456 0.94091,-0.392046 2.03864,-0.392046 1.33296,0 2.37841,0.548864 1.07159,0.522728 1.75114,1.515911 0.78409,-0.967047 1.96023,-1.515911 1.17614,-0.548864 2.61364,-0.548864 z"
         style="font-weight:bold;font-family:Comfortaa;-inkscape-font-specification:'Comfortaa Bold';stroke:#ececec;stroke-width:7.00082;stroke-linejoin:round;stroke-miterlimit:4;stroke-dasharray:none;stroke-opacity:1"
         id="path18931" />
      <path
         d="m 225.40092,52.522657 q -2.09091,0 -3.7375,-0.914774 -1.6466,-0.94091 -2.56137,-2.587504 -0.91477,-1.646593 -0.91477,-3.737505 0,-2.117048 0.91477,-3.763641 0.91477,-1.646594 2.56137,-2.561368 1.64659,-0.94091 3.7375,-0.94091 2.06478,0 3.68523,0.94091 1.6466,0.914774 2.56137,2.561368 0.94091,1.646593 0.94091,3.763641 0,2.090912 -0.91477,3.737505 -0.91478,1.646594 -2.56137,2.587504 -1.62046,0.914774 -3.71137,0.914774 z m 0,-2.352276 q 1.33296,0 2.37841,-0.627274 1.0716,-0.627273 1.6466,-1.725002 0.60113,-1.123865 0.60113,-2.535231 0,-1.411365 -0.60113,-2.535231 -0.575,-1.123865 -1.6466,-1.751138 -1.04545,-0.627274 -2.37841,-0.627274 -1.33295,0 -2.40455,0.627274 -1.04545,0.627273 -1.64659,1.751138 -0.60114,1.123866 -0.60114,2.535231 0,1.411366 0.60114,2.535231 0.60114,1.097729 1.64659,1.725002 1.0716,0.627274 2.40455,0.627274 z"
         style="font-weight:bold;font-family:Comfortaa;-inkscape-font-specification:'Comfortaa Bold';stroke:#ececec;stroke-width:7.00082;stroke-linejoin:round;stroke-miterlimit:4;stroke-dasharray:none;stroke-opacity:1"
         id="path18933" />
    </g>
  </g>
  <path
     id="path18833"
     style="stroke:#f3f3f3;stroke-width:9.86203;stroke-linejoin:miter;stroke-miterlimit:4;stroke-dasharray:none;stroke-opacity:1"
     d="m 468.24887,6.282998 c -7.06427,1.9056504 -9.74109,6.416065 -10.69029,8.887392 5.08908,0.132289 8.56417,-0.88705 10.08354,-3.018324 1.36743,-1.905655 0.9866,-4.416292 0.60675,-5.869068 z m -12.53172,5.830547 c -0.84397,0 -1.53323,0.688655 -1.53323,1.531307 v 6.947733 c -2.47068,0.517431 -7.28476,2.420142 -9.29574,9.426712 -1.34355,4.716113 -3.07172,7.974341 -4.5689,10.830898 -0.30718,0.574769 -0.59454,1.11226 -0.86293,1.668074 0.0502,0.01262 0.0983,0.02939 0.14832,0.04241 6.73893,1.744692 11.90127,6.491693 14.41552,12.445037 0.11993,0.283977 0.23318,0.571751 0.34093,0.860995 -0.10822,-0.2895 -0.22074,-0.577531 -0.34093,-0.860995 -2.5844,-6.095318 -7.90055,-10.757821 -14.41552,-12.445037 -1.71447,-0.444008 -3.51169,-0.682117 -5.3644,-0.685727 -1.69596,0 -3.34437,0.202014 -4.92716,0.57401 -0.60451,-3.429029 -2.07379,-5.84645 -4.3551,-7.190428 -4.59014,-2.70763 -11.35755,-0.700855 -13.72979,0.13869 v -6.4161 c 0,-0.83994 -0.68986,-1.527461 -1.53324,-1.527461 -0.84337,0 -1.53516,0.687531 -1.53516,1.527461 v 1.529384 4.880937 c -2.44665,-0.863914 -9.47275,-2.933915 -14.05532,0.07702 -2.87655,1.909901 -4.35317,5.633331 -4.35317,11.075526 0,5.672198 1.18893,11.094599 3.45171,15.696431 2.0516,4.200959 4.81335,7.256897 7.72783,8.631201 2.76186,1.298731 5.38891,0.93571 7.76635,-1.049764 0.57662,-0.477263 1.39989,-0.477263 1.95507,0 1.18897,0.972959 2.43793,1.565401 3.74064,1.737404 3.22576,7.786854 10.89736,13.269444 19.84734,13.269444 7.42634,0 13.97333,-3.774308 17.83063,-9.507611 1.2023,0.189933 2.42297,0.302409 3.62507,0.302409 3.24452,0 8.17602,-0.842335 12.28516,-3.237912 5.10586,-2.971174 7.67967,-7.553971 7.67967,-13.631557 0,-9.201326 -2.1306,-13.226179 -4.58815,-17.884569 -1.49717,-2.875513 -3.22534,-6.115082 -4.5689,-10.850159 -2.00151,-6.975711 -6.77085,-8.891589 -9.25336,-9.41901 v -6.955435 c 0,-0.842642 -0.69011,-1.531308 -1.53324,-1.531308 z m -47.55733,18.396931 c -0.94864,-2.471337 -3.62339,-6.979824 -10.68259,-8.885465 -0.39839,1.452766 -0.75988,3.962308 0.60674,5.86714 1.51845,2.132083 4.98983,3.150614 10.07585,3.018325 z m 46.24946,25.48141 c 0.11373,0.311207 0.22034,0.625155 0.31974,0.941903 -0.0999,-0.317399 -0.20575,-0.631012 -0.31974,-0.941903 z m 0.33322,0.986204 c 0.10472,0.336196 0.20262,0.675174 0.29086,1.017022 0.05,0.193858 0.0921,0.390023 0.13676,0.585558 -0.0448,-0.195692 -0.0867,-0.391937 -0.13676,-0.585558 -0.0885,-0.341976 -0.1862,-0.681832 -0.29086,-1.017022 z m -41.04685,0.104014 c -0.0631,0.207014 -0.12021,0.416385 -0.17721,0.626003 0.0576,-0.209125 0.11332,-0.418841 0.17721,-0.626003 z m -0.26003,0.922633 c -0.43842,1.709583 -0.67224,3.501189 -0.67224,5.347076 0,1.852839 0.23453,3.650973 0.67608,5.366336 0.081,0.314609 0.1711,0.625322 0.26583,0.934191 -0.0965,-0.310773 -0.18426,-0.621949 -0.26583,-0.934191 -0.93964,-3.596979 -0.89766,-7.275981 -0.004,-10.713412 z m 0.45843,12.21968 c 0.0408,0.12077 0.0804,0.24232 0.12327,0.362123 -0.0435,-0.120415 -0.082,-0.241402 -0.12327,-0.362123 z" />
  <g
     transform="matrix(2.2751947,0,0,2.2751947,131.10148,17.21886)"
     id="g230">
    <g
       id="g22215">
      <path
         id="polygon120"
         transform="matrix(0.2154,0,0,0.2154,-56.371,-9.231)"
         d="m 156.8,140.6 v 4.8 h -16.4 v -25.7 h 5.5 v 20.9 z"
         style="fill:#ffffff;fill-opacity:1;stroke:#ffffff;stroke-width:20.405;stroke-linecap:butt;stroke-linejoin:miter;stroke-miterlimit:2;stroke-dasharray:none;stroke-opacity:1;paint-order:stroke fill markers" />
      <path
         d="m -20.399,20.129 h 1.8309 l -0.9047,-2.5418 z m 2.154,1.0124 h -2.4771 l -0.34465,0.94778 h -1.2924 l 2.1325,-5.5359 h 1.4863 l 2.1325,5.5359 h -1.2924 z"
         stroke-width="0.2154"
         id="path122"
         style="fill:#ffffff;fill-opacity:1;stroke:#ffffff;stroke-width:4.39523;stroke-linecap:butt;stroke-linejoin:miter;stroke-miterlimit:2;stroke-dasharray:none;stroke-opacity:1;paint-order:stroke fill markers" />
      <path
         id="polygon124"
         transform="matrix(0.2154,0,0,0.2154,-56.371,-9.231)"
         d="m 196.8,145.4 v -25.7 h 5.5 v 10.1 h 12.1 v -10.1 h 5.5 v 25.7 h -5.5 v -10.8 h -12.1 v 10.8 z"
         style="fill:#ffffff;fill-opacity:1;stroke:#ffffff;stroke-width:20.405;stroke-linecap:butt;stroke-linejoin:miter;stroke-miterlimit:2;stroke-dasharray:none;stroke-opacity:1;paint-order:stroke fill markers" />
      <g
         transform="matrix(0.2154,0,0,0.2154,-56.371,-9.231)"
         id="g128"
         style="fill:#ffffff;fill-opacity:1;stroke:#ffffff;stroke-width:20.405;stroke-linecap:butt;stroke-linejoin:miter;stroke-miterlimit:2;stroke-dasharray:none;stroke-opacity:1;paint-order:stroke fill markers">
        <path
           d="m 237.2,124.2 c -4.7,0 -7.8,3.6 -7.8,8.4 0,4.8 3,8.4 7.8,8.4 4.7,0 7.8,-3.7 7.8,-8.4 0,-4.8 -3.1,-8.4 -7.8,-8.4 m 0,-4.9 c 7.8,0 13.4,5.5 13.4,13.3 0,7.7 -5.7,13.3 -13.4,13.3 -7.7,0 -13.4,-5.6 -13.4,-13.3 -0.1,-7.7 5.6,-13.3 13.4,-13.3"
           id="path126"
           style="fill:#ffffff;fill-opacity:1;stroke:#ffffff;stroke-width:20.405;stroke-linecap:butt;stroke-linejoin:miter;stroke-miterlimit:2;stroke-dasharray:none;stroke-opacity:1;paint-order:stroke fill markers" />
      </g>
      <path
         id="polygon130"
         transform="matrix(0.2154,0,0,0.2154,-56.371,-9.231)"
         d="m 276.8,145.4 v -18.5 l -7.2,18.5 h -2.4 l -7.3,-18.5 v 18.5 h -5.4 v -25.7 h 7.6 l 6.3,16.1 6.2,-16.1 h 7.7 v 25.7 z"
         style="fill:#ffffff;fill-opacity:1;stroke:#ffffff;stroke-width:20.405;stroke-linecap:butt;stroke-linejoin:miter;stroke-miterlimit:2;stroke-dasharray:none;stroke-opacity:1;paint-order:stroke fill markers" />
      <path
         id="polygon132"
         transform="matrix(0.2154,0,0,0.2154,-56.371,-9.231)"
         d="m 292.9,124.4 v 5.6 h 12.4 v 4.7 h -12.4 v 6 h 12.7 v 4.7 h -18.2 v -25.7 h 18.2 v 4.7 z"
         style="fill:#ffffff;fill-opacity:1;stroke:#ffffff;stroke-width:20.405;stroke-linecap:butt;stroke-linejoin:miter;stroke-miterlimit:2;stroke-dasharray:none;stroke-opacity:1;paint-order:stroke fill markers" />
      <g
         transform="matrix(0.2154,0,0,0.2154,-56.371,-9.231)"
         id="g136"
         style="fill:#ffffff;fill-opacity:1;stroke:#ffffff;stroke-width:20.405;stroke-linecap:butt;stroke-linejoin:miter;stroke-miterlimit:2;stroke-dasharray:none;stroke-opacity:1;paint-order:stroke fill markers">
        <path
           d="m 321,137.6 c 1.8,1.9 4.6,3.5 8.2,3.5 3,0 4.5,-1.4 4.5,-2.9 0,-1.9 -2.2,-2.6 -5.2,-3.3 -4.2,-1 -9.6,-2.1 -9.6,-7.9 0,-4.3 3.7,-7.7 9.7,-7.7 4.1,0 7.5,1.2 10,3.6 l -3,4 c -2.1,-1.9 -4.9,-2.8 -7.4,-2.8 -2.5,0 -3.8,1.1 -3.8,2.6 0,1.7 2.2,2.3 5.1,3 4.2,1 9.6,2.2 9.6,7.9 0,4.7 -3.3,8.2 -10.3,8.2 -4.9,0 -8.5,-1.7 -10.9,-4.1 z"
           id="path134"
           style="fill:#ffffff;fill-opacity:1;stroke:#ffffff;stroke-width:20.405;stroke-linecap:butt;stroke-linejoin:miter;stroke-miterlimit:2;stroke-dasharray:none;stroke-opacity:1;paint-order:stroke fill markers" />
      </g>
      <path
         id="polygon138"
         transform="matrix(0.2154,0,0,0.2154,-56.371,-9.231)"
         d="m 362.5,145.4 -4.5,-17.6 -4.5,17.6 h -5.8 l -7.4,-25.7 h 6.2 l 4.5,18.6 4.9,-18.6 h 4.2 l 4.9,18.6 4.5,-18.6 h 6.1 l -7.3,25.7 z"
         style="fill:#ffffff;fill-opacity:1;stroke:#ffffff;stroke-width:20.405;stroke-linecap:butt;stroke-linejoin:miter;stroke-miterlimit:2;stroke-dasharray:none;stroke-opacity:1;paint-order:stroke fill markers" />
      <path
         id="polygon140"
         transform="matrix(0.2154,0,0,0.2154,-56.371,-9.231)"
         d="m 383.7,124.4 v 5.6 h 12.4 v 4.7 h -12.4 v 6 h 12.7 v 4.7 h -18.2 v -25.7 h 18.2 v 4.7 z"
         style="fill:#ffffff;fill-opacity:1;stroke:#ffffff;stroke-width:20.405;stroke-linecap:butt;stroke-linejoin:miter;stroke-miterlimit:2;stroke-dasharray:none;stroke-opacity:1;paint-order:stroke fill markers" />
      <path
         id="polygon142"
         transform="matrix(0.2154,0,0,0.2154,-56.371,-9.231)"
         d="m 406.2,124.4 v 5.6 h 12.4 v 4.7 h -12.4 v 6 h 12.7 v 4.7 h -18.2 v -25.7 h 18.2 v 4.7 z"
         style="fill:#ffffff;fill-opacity:1;stroke:#ffffff;stroke-width:20.405;stroke-linecap:butt;stroke-linejoin:miter;stroke-miterlimit:2;stroke-dasharray:none;stroke-opacity:1;paint-order:stroke fill markers" />
      <path
         id="polygon144"
         transform="matrix(0.2154,0,0,0.2154,-56.371,-9.231)"
         d="m 442.1,119.7 v 4.8 h -7.5 v 20.9 h -5.5 v -20.9 h -7.5 v -4.8 z"
         style="fill:#ffffff;fill-opacity:1;stroke:#ffffff;stroke-width:20.405;stroke-linecap:butt;stroke-linejoin:miter;stroke-miterlimit:2;stroke-dasharray:none;stroke-opacity:1;paint-order:stroke fill markers" />
      <g
         transform="matrix(0.2154,0,0,0.2154,-56.371,-9.231)"
         id="g150"
         style="fill:#ffffff;fill-opacity:1;stroke:#ffffff;stroke-width:20.405;stroke-linecap:butt;stroke-linejoin:miter;stroke-miterlimit:2;stroke-dasharray:none;stroke-opacity:1;paint-order:stroke fill markers">
        <path
           d="m 454.2,132.6 c 0,-7.9 6,-13.3 13.5,-13.3 5.9,0 9.1,3.1 10.9,6.3 l -4.7,2.3 c -1.1,-2.1 -3.4,-3.7 -6.2,-3.7 -4.5,0 -7.9,3.6 -7.9,8.4 0,4.9 3.4,8.4 7.9,8.4 2.9,0 5.2,-1.6 6.2,-3.7 l 4.7,2.3 c -1.9,3.2 -5.1,6.3 -10.9,6.3 -7.5,0 -13.5,-5.4 -13.5,-13.3"
           id="path146"
           style="fill:#ffffff;fill-opacity:1;stroke:#ffffff;stroke-width:20.405;stroke-linecap:butt;stroke-linejoin:miter;stroke-miterlimit:2;stroke-dasharray:none;stroke-opacity:1;paint-order:stroke fill markers" />
        <path
           d="m 494.1,124.2 c -4.7,0 -7.8,3.6 -7.8,8.4 0,4.8 3,8.4 7.8,8.4 4.7,0 7.8,-3.7 7.8,-8.4 0,-4.8 -3.1,-8.4 -7.8,-8.4 m 0,-4.9 c 7.8,0 13.4,5.5 13.4,13.3 0,7.7 -5.7,13.3 -13.4,13.3 -7.7,0 -13.4,-5.6 -13.4,-13.3 0,-7.7 5.6,-13.3 13.4,-13.3"
           id="path148"
           style="fill:#ffffff;fill-opacity:1;stroke:#ffffff;stroke-width:20.405;stroke-linecap:butt;stroke-linejoin:miter;stroke-miterlimit:2;stroke-dasharray:none;stroke-opacity:1;paint-order:stroke fill markers" />
      </g>
      <path
         id="polygon152"
         transform="matrix(0.2154,0,0,0.2154,-56.371,-9.231)"
         d="m 533.7,145.4 v -18.5 l -7.2,18.5 h -2.4 l -7.3,-18.5 v 18.5 h -5.4 v -25.7 h 7.6 l 6.3,16.1 6.2,-16.1 h 7.7 v 25.7 z"
         style="fill:#ffffff;fill-opacity:1;stroke:#ffffff;stroke-width:20.405;stroke-linecap:butt;stroke-linejoin:miter;stroke-miterlimit:2;stroke-dasharray:none;stroke-opacity:1;paint-order:stroke fill markers" />
      <g
         transform="matrix(0.2154,0,0,0.2154,-56.371,-9.231)"
         id="g156"
         style="fill:#ffffff;fill-opacity:1;stroke:#ffffff;stroke-width:20.405;stroke-linecap:butt;stroke-linejoin:miter;stroke-miterlimit:2;stroke-dasharray:none;stroke-opacity:1;paint-order:stroke fill markers">
        <path
           d="m 555.6,124.4 h -5.8 v 7.1 h 5.8 c 2.2,0 3.8,-1.4 3.8,-3.5 0,-2.1 -1.6,-3.6 -3.8,-3.6 m -11.3,-4.7 h 12 c 5.6,0 8.6,3.8 8.6,8.3 0,4.5 -3.1,8.2 -8.6,8.2 h -6.5 v 9.2 h -5.5 z"
           id="path154"
           style="fill:#ffffff;fill-opacity:1;stroke:#ffffff;stroke-width:20.405;stroke-linecap:butt;stroke-linejoin:miter;stroke-miterlimit:2;stroke-dasharray:none;stroke-opacity:1;paint-order:stroke fill markers" />
      </g>
      <path
         d="m 66.818,20.129 h 1.8309 l -0.9047,-2.5418 z m 2.154,1.0124 h -2.4771 l -0.34465,0.94778 h -1.2924 l 2.1325,-5.5359 h 1.4863 l 2.1325,5.5359 h -1.2924 z"
         stroke-width="0.2154"
         id="path158"
         style="fill:#ffffff;fill-opacity:1;stroke:#ffffff;stroke-width:4.39523;stroke-linecap:butt;stroke-linejoin:miter;stroke-miterlimit:2;stroke-dasharray:none;stroke-opacity:1;paint-order:stroke fill markers" />
      <path
         id="polygon160"
         transform="matrix(0.2154,0,0,0.2154,-56.371,-9.231)"
         d="m 597.3,145.4 h -5.4 v -25.7 h 5.6 l 11.9,16.7 v -16.7 h 5.5 v 25.7 h -5.3 l -12.3,-17.2 z"
         style="fill:#ffffff;fill-opacity:1;stroke:#ffffff;stroke-width:20.405;stroke-linecap:butt;stroke-linejoin:miter;stroke-miterlimit:2;stroke-dasharray:none;stroke-opacity:1;paint-order:stroke fill markers" />
      <path
         id="polygon162"
         transform="matrix(0.2154,0,0,0.2154,-56.371,-9.231)"
         d="m 632.6,145.4 v -10.5 l 9.8,-15.2 h -6.2 l -6.3,10.4 -6.4,-10.4 h -6.3 l 9.9,15.2 v 10.5 z"
         style="fill:#ffffff;fill-opacity:1;stroke:#ffffff;stroke-width:20.405;stroke-linecap:butt;stroke-linejoin:miter;stroke-miterlimit:2;stroke-dasharray:none;stroke-opacity:1;paint-order:stroke fill markers" />
      <polygon
         class="st0"
         transform="matrix(0.2154,0,0,0.2154,-56.371,-9.231)"
         points="30.6,62.5 9,75 9,99.9 30.6,112.3 52.2,99.9 52.2,75 "
         id="polygon164"
         style="fill:#ffffff;fill-opacity:1;stroke:#ffffff;stroke-width:20.405;stroke-miterlimit:4;stroke-dasharray:none;stroke-opacity:1" />
      <path
         class="st0"
         d="m -37.976,21.723 4.3942,2.5418 4.3942,-2.5418 v -5.0835 l -4.3942,-2.5418 -4.3942,2.5418 z m 4.3942,3.1018 -4.8897,-2.8218 v -5.6651 l 4.8897,-2.8218 4.8897,2.8218 v 5.6651 z"
         stroke-width="0.2154"
         id="path166"
         style="fill:#ffffff;fill-opacity:1;stroke:#ffffff;stroke-width:4.39523;stroke-miterlimit:4;stroke-dasharray:none;stroke-opacity:1" />
      <polygon
         class="st0"
         transform="matrix(0.2154,0,0,0.2154,-56.371,-9.231)"
         points="78.4,144.9 55.7,158 32.9,144.9 32.9,118.6 55.7,105.5 78.4,118.6 "
         id="polygon168"
         style="fill:#ffffff;fill-opacity:1;stroke:#ffffff;stroke-width:20.405;stroke-miterlimit:4;stroke-dasharray:none;stroke-opacity:1" />
      <path
         class="st0"
         d="m -43.382,12.137 4.4158,2.5418 4.3942,-2.5418 V 7.075 L -38.9662,4.5332 -43.382,7.075 Z m 4.4158,3.1234 -4.9112,-2.8218 V 6.7735 l 4.8897,-2.8218 4.8897,2.8218 v 5.6651 z"
         stroke-width="0.2154"
         id="path170"
         style="fill:#ffffff;fill-opacity:1;stroke:#ffffff;stroke-width:4.39523;stroke-miterlimit:4;stroke-dasharray:none;stroke-opacity:1" />
      <path
         class="st0"
         d="m -30.43684,8.06562 c 0.40926,2.39094 2.21862,3.51102 4.54494,3.51102 2.39094,0 3.96336,-1.03392 3.96336,-3.1233 0,-1.96014 -1.16316,-2.8002 -4.13568,-3.7695 -2.54172,-0.79698 -4.9542,-1.63704 -4.9542,-4.6311 0,-3.231 2.54172,-4.37262 5.0619,-4.37262 2.97252,0 5.08344,1.20624 5.42808,4.35108 l -1.46472,0.02154 c -0.3231,-2.30478 -1.70166,-3.16638 -3.94182,-3.16638 -2.0463,0 -3.59718,0.94776 -3.59718,3.05868 0,2.08938 1.59396,2.67096 4.32954,3.53256 2.67096,0.84006 4.78188,1.85244 4.78188,4.80342 0,3.0156 -2.34786,4.45878 -5.53578,4.45878 -3.231,0 -5.36346,-1.70166 -5.83734,-4.69572 z"
         fill="#005e2c"
         id="path172"
         style="fill:#ffffff;fill-opacity:1;stroke:#ffffff;stroke-width:4.39523;stroke-linecap:butt;stroke-linejoin:miter;stroke-miterlimit:2;stroke-dasharray:none;stroke-opacity:1;paint-order:stroke fill markers" />
      <path
         class="st0"
         d="m -1.1633,-2.9412 4.5235,12.623 h -9.047 z m -0.77546,-1.3786 -6.1606,16.737 h 1.4432 l 0.51697,-1.4217 h 9.9948 l 0.51697,1.4217 h 1.4432 l -6.1606,-16.737 z"
         stroke-width="0.2154"
         id="path176"
         style="fill:#ffffff;fill-opacity:1;stroke:#ffffff;stroke-width:4.39523;stroke-linecap:butt;stroke-linejoin:miter;stroke-miterlimit:2;stroke-dasharray:none;stroke-opacity:1;paint-order:stroke fill markers" />
      <path
         id="polygon178"
         class="st0"
         d="m -14.9065,12.2013 h 1.2924 V -3.04902 h 4.35108 v -1.27086 h -9.97302 v 1.27086 h 4.32954 z"
         style="fill:#ffffff;fill-opacity:1;stroke:#ffffff;stroke-width:4.39523;stroke-linecap:butt;stroke-linejoin:miter;stroke-miterlimit:2;stroke-dasharray:none;stroke-opacity:1;paint-order:stroke fill markers" />
      <g
         transform="matrix(0.2154,0,0,0.2154,-56.371,-9.231)"
         id="g182"
         style="fill:#ffffff;fill-opacity:1;stroke:#ffffff;stroke-width:20.405;stroke-linecap:butt;stroke-linejoin:miter;stroke-miterlimit:2;stroke-dasharray:none;stroke-opacity:1;paint-order:stroke fill markers">
        <path
           class="st0"
           d="m 351.9,99.7 -18.7,-35 c 9.3,-3.2 14,-11.2 14,-20.2 0,-11.7 -7.8,-21.7 -23.5,-21.7 h -29.6 v 76.7 h 6 V 28.6 H 323 c 10.8,0 18,6.6 18,15.9 0,9.3 -7.2,15.9 -18,15.9 h -10.5 v 5.8 h 11.2 c 1.1,0 2.2,-0.1 3.2,-0.2 l 18,33.7 z"
           fill="#005e2c"
           id="path180"
           style="fill:#ffffff;fill-opacity:1;stroke:#ffffff;stroke-width:20.405;stroke-linecap:butt;stroke-linejoin:miter;stroke-miterlimit:2;stroke-dasharray:none;stroke-opacity:1;paint-order:stroke fill markers" />
      </g>
      <path
         id="polygon184"
         class="st0"
         d="m 24.9425,12.2013 h 1.2924 V -3.04902 h 4.32954 v -1.27086 h -9.97302 v 1.27086 h 4.35108 z"
         style="fill:#ffffff;fill-opacity:1;stroke:#ffffff;stroke-width:4.39523;stroke-linecap:butt;stroke-linejoin:miter;stroke-miterlimit:2;stroke-dasharray:none;stroke-opacity:1;paint-order:stroke fill markers" />
      <path
         id="polygon186"
         class="st0"
         d="m 33.70928,-4.31988 h -1.63704 l 5.55732,8.05596 -5.88042,8.44368 -0.02154,0.04308 h 1.63704 l 5.0619,-7.4313 5.08344,7.40976 v 0.02154 h 1.6155 l -5.88042,-8.5083 5.53578,-7.99134 0.02154,-0.04308 h -1.63704 l -4.7388,6.97896 -4.69572,-6.97896 z"
         style="fill:#ffffff;fill-opacity:1;stroke:#ffffff;stroke-width:4.39523;stroke-linecap:butt;stroke-linejoin:miter;stroke-miterlimit:2;stroke-dasharray:none;stroke-opacity:1;paint-order:stroke fill markers" />
      <g
         fill="#808285"
         id="g228"
         style="fill:#ffffff;fill-opacity:1;stroke:#ffffff;stroke-width:4.39523;stroke-linecap:butt;stroke-linejoin:miter;stroke-miterlimit:2;stroke-dasharray:none;stroke-opacity:1;paint-order:stroke fill markers">
        <path
           id="polygon190"
           class="st1"
           transform="matrix(0.2154,0,0,0.2154,-56.371,-9.231)"
           d="m 148.4,173 h -6.2 V 161 H 139 v 14.8 h 9.4 z"
           style="fill:#ffffff;fill-opacity:1;stroke:#ffffff;stroke-width:20.405;stroke-linecap:butt;stroke-linejoin:miter;stroke-miterlimit:2;stroke-dasharray:none;stroke-opacity:1;paint-order:stroke fill markers" />
        <path
           id="rect192"
           class="st1"
           style="fill:#ffffff;fill-opacity:1;stroke:#ffffff;stroke-width:4.39523;stroke-linecap:butt;stroke-linejoin:miter;stroke-miterlimit:2;stroke-dasharray:none;stroke-opacity:1;paint-order:stroke fill markers"
           d="m -23.759001,25.448999 h 0.68929 v 3.188 h -0.68929 z" />
        <path
           class="st1"
           d="m -20.7223,28.05474 c 0.25848,0 0.40926,-0.15078 0.40926,-0.38772 0,-0.19386 -0.15078,-0.36618 -0.40926,-0.36618 h -0.88314 v 0.7539 z m -0.02154,-1.31394 c 0.23694,0 0.36618,-0.15078 0.36618,-0.34464 0,-0.19386 -0.15078,-0.34464 -0.36618,-0.34464 h -0.84006 v 0.71082 h 0.84006 z m -1.52934,-1.2924 h 1.68012 c 0.60312,0 0.92622,0.38772 0.92622,0.81852 0,0.40926 -0.25848,0.66774 -0.56004,0.73236 0.34464,0.04308 0.60312,0.38772 0.60312,0.77544 0,0.47388 -0.3231,0.8616 -0.92622,0.8616 h -1.7232 z"
           id="path194"
           style="fill:#ffffff;fill-opacity:1;stroke:#ffffff;stroke-width:4.39523;stroke-linecap:butt;stroke-linejoin:miter;stroke-miterlimit:2;stroke-dasharray:none;stroke-opacity:1;paint-order:stroke fill markers" />
        <path
           class="st1"
           d="m -17.53438,26.02998 h -0.71082 v 0.88314 h 0.71082 c 0.28002,0 0.47388,-0.17232 0.47388,-0.4308 0,-0.28002 -0.2154,-0.45234 -0.47388,-0.45234 m -0.2154,1.46472 h -0.49542 v 1.14162 h -0.68928 V 25.4484 h 1.48626 c 0.66774,0 1.077,0.4308 1.077,1.03392 0,0.56004 -0.34464,0.8616 -0.68928,0.94776 l 0.71082,1.20624 h -0.77544 z"
           id="path196"
           style="fill:#ffffff;fill-opacity:1;stroke:#ffffff;stroke-width:4.39523;stroke-linecap:butt;stroke-linejoin:miter;stroke-miterlimit:2;stroke-dasharray:none;stroke-opacity:1;paint-order:stroke fill markers" />
        <path
           id="polygon200"
           class="st1"
           transform="matrix(0.2154,0,0,0.2154,-56.371,-9.231)"
           d="M 199.3,173.1 H 192 v -3.5 h 7.2 v -2.7 H 192 v -3.2 h 7.3 V 161 h -10.4 v 14.8 h 10.4 z"
           style="fill:#ffffff;fill-opacity:1;stroke:#ffffff;stroke-width:20.405;stroke-linecap:butt;stroke-linejoin:miter;stroke-miterlimit:2;stroke-dasharray:none;stroke-opacity:1;paint-order:stroke fill markers" />
        <g
           transform="matrix(0.2154,0,0,0.2154,-56.371,-9.231)"
           id="g204"
           style="fill:#ffffff;fill-opacity:1;stroke:#ffffff;stroke-width:20.405;stroke-linecap:butt;stroke-linejoin:miter;stroke-miterlimit:2;stroke-dasharray:none;stroke-opacity:1;paint-order:stroke fill markers">
          <path
             class="st1"
             d="m 214.9,173 c 2.9,0 4.6,-2.1 4.6,-4.6 0,-2.6 -1.6,-4.6 -4.6,-4.6 h -2.7 v 9.3 h 2.7 z m -5.8,-12 h 5.8 c 4.6,0 7.9,3 7.9,7.4 0,4.5 -3.2,7.4 -7.9,7.4 h -5.8 z"
             fill="#808285"
             id="path202"
             style="fill:#ffffff;fill-opacity:1;stroke:#ffffff;stroke-width:20.405;stroke-linecap:butt;stroke-linejoin:miter;stroke-miterlimit:2;stroke-dasharray:none;stroke-opacity:1;paint-order:stroke fill markers" />
        </g>
        <path
           id="polygon206"
           class="st1"
           transform="matrix(0.2154,0,0,0.2154,-56.371,-9.231)"
           d="M 236.3,173.1 H 229 v -3.5 h 7.1 v -2.7 H 229 v -3.2 h 7.3 V 161 h -10.5 v 14.8 h 10.5 z"
           style="fill:#ffffff;fill-opacity:1;stroke:#ffffff;stroke-width:20.405;stroke-linecap:butt;stroke-linejoin:miter;stroke-miterlimit:2;stroke-dasharray:none;stroke-opacity:1;paint-order:stroke fill markers" />
        <g
           transform="matrix(0.2154,0,0,0.2154,-56.371,-9.231)"
           id="g212"
           style="fill:#ffffff;fill-opacity:1;stroke:#ffffff;stroke-width:20.405;stroke-linecap:butt;stroke-linejoin:miter;stroke-miterlimit:2;stroke-dasharray:none;stroke-opacity:1;paint-order:stroke fill markers">
          <path
             class="st1"
             d="m 246,163.7 h -3.3 v 4.1 h 3.3 c 1.2,0 2.2,-0.8 2.2,-2 0,-1.3 -0.9,-2.1 -2.2,-2.1 m -6.5,-2.7 h 6.9 c 3.2,0 5,2.2 5,4.8 0,2.6 -1.8,4.7 -5,4.7 h -3.8 v 5.3 h -3.2 V 161 Z"
             id="path208"
             style="fill:#ffffff;fill-opacity:1;stroke:#ffffff;stroke-width:20.405;stroke-linecap:butt;stroke-linejoin:miter;stroke-miterlimit:2;stroke-dasharray:none;stroke-opacity:1;paint-order:stroke fill markers" />
          <path
             class="st1"
             d="m 254.2,161 h 3.2 v 8.8 c 0,2.1 1.1,3.5 3.4,3.5 2.3,0 3.4,-1.4 3.4,-3.5 V 161 h 3.2 v 8.9 c 0,3.7 -2.1,6.2 -6.6,6.2 -4.5,0 -6.6,-2.5 -6.6,-6.2 z"
             id="path210"
             style="fill:#ffffff;fill-opacity:1;stroke:#ffffff;stroke-width:20.405;stroke-linecap:butt;stroke-linejoin:miter;stroke-miterlimit:2;stroke-dasharray:none;stroke-opacity:1;paint-order:stroke fill markers" />
        </g>
        <path
           id="rect214"
           class="st1"
           style="fill:#ffffff;fill-opacity:1;stroke:#ffffff;stroke-width:4.39523;stroke-linecap:butt;stroke-linejoin:miter;stroke-miterlimit:2;stroke-dasharray:none;stroke-opacity:1;paint-order:stroke fill markers"
           d="m 2.0246999,25.448999 h 0.68929 v 3.188 h -0.68929 z" />
        <g
           transform="matrix(0.2154,0,0,0.2154,-56.371,-9.231)"
           id="g226"
           style="fill:#ffffff;fill-opacity:1;stroke:#ffffff;stroke-width:20.405;stroke-linecap:butt;stroke-linejoin:miter;stroke-miterlimit:2;stroke-dasharray:none;stroke-opacity:1;paint-order:stroke fill markers">
          <path
             class="st1"
             d="m 278.7,171.3 c 1,1.1 2.7,2 4.7,2 1.7,0 2.6,-0.8 2.6,-1.7 0,-1.1 -1.3,-1.5 -3,-1.9 -2.4,-0.6 -5.5,-1.2 -5.5,-4.5 0,-2.5 2.1,-4.5 5.6,-4.5 2.4,0 4.3,0.7 5.8,2.1 l -1.8,2.3 c -1.2,-1.1 -2.8,-1.6 -4.2,-1.6 -1.4,0 -2.2,0.6 -2.2,1.5 0,1 1.2,1.3 3,1.7 2.4,0.6 5.6,1.3 5.6,4.6 0,2.7 -1.9,4.8 -5.9,4.8 -2.8,0 -4.9,-1 -6.3,-2.4 z"
             id="path216"
             style="fill:#ffffff;fill-opacity:1;stroke:#ffffff;stroke-width:20.405;stroke-linecap:butt;stroke-linejoin:miter;stroke-miterlimit:2;stroke-dasharray:none;stroke-opacity:1;paint-order:stroke fill markers" />
          <path
             class="st1"
             d="m 298.2,173.3 c 6.1,-4.5 7.8,-6 7.8,-7.8 0,-1.3 -1.2,-1.9 -2.4,-1.9 -1.7,0 -3,0.7 -4,1.7 l -1.8,-2.1 c 1.4,-1.7 3.6,-2.4 5.7,-2.4 3.2,0 5.7,1.8 5.7,4.7 0,2.5 -2.1,4.7 -6.1,7.5 h 6.2 v 2.8 h -11.1 z"
             id="path218"
             style="fill:#ffffff;fill-opacity:1;stroke:#ffffff;stroke-width:20.405;stroke-linecap:butt;stroke-linejoin:miter;stroke-miterlimit:2;stroke-dasharray:none;stroke-opacity:1;paint-order:stroke fill markers" />
          <path
             class="st1"
             d="m 318.1,163.6 c -2.1,0 -2.9,2.1 -2.9,4.8 0,2.7 0.8,4.9 2.9,4.9 2.1,0 2.9,-2.1 2.9,-4.9 0,-2.7 -0.8,-4.8 -2.9,-4.8 m 0,-2.8 c 4.2,0 6.1,3.8 6.1,7.6 0,3.8 -1.9,7.7 -6.1,7.7 -4.2,0 -6.1,-3.8 -6.1,-7.7 0,-3.9 1.9,-7.6 6.1,-7.6"
             id="path220"
             style="fill:#ffffff;fill-opacity:1;stroke:#ffffff;stroke-width:20.405;stroke-linecap:butt;stroke-linejoin:miter;stroke-miterlimit:2;stroke-dasharray:none;stroke-opacity:1;paint-order:stroke fill markers" />
          <path
             class="st1"
             d="m 332.7,163.6 c -2.1,0 -2.9,2.1 -2.9,4.8 0,2.7 0.8,4.9 2.9,4.9 2.1,0 2.9,-2.1 2.9,-4.9 0,-2.7 -0.8,-4.8 -2.9,-4.8 m 0,-2.8 c 4.2,0 6.1,3.8 6.1,7.6 0,3.8 -1.9,7.7 -6.1,7.7 -4.2,0 -6.1,-3.8 -6.1,-7.7 0,-3.9 1.8,-7.6 6.1,-7.6"
             id="path222"
             style="fill:#ffffff;fill-opacity:1;stroke:#ffffff;stroke-width:20.405;stroke-linecap:butt;stroke-linejoin:miter;stroke-miterlimit:2;stroke-dasharray:none;stroke-opacity:1;paint-order:stroke fill markers" />
          <path
             class="st1"
             d="m 342.4,171.6 c 1,1.1 2.6,1.7 4.1,1.7 1.8,0 2.8,-0.8 2.8,-1.9 0,-1.2 -0.9,-1.8 -3,-1.8 h -1.8 v -2.8 h 1.8 c 1.6,0 2.7,-0.5 2.7,-1.6 0,-1.2 -1.2,-1.8 -2.8,-1.8 -1.4,0 -2.7,0.6 -3.8,1.6 l -1.6,-2 c 1.2,-1.4 3.1,-2.4 5.7,-2.4 3.5,0 5.6,1.6 5.6,4 0,1.9 -1.6,3.1 -3.2,3.4 1.5,0.2 3.5,1.3 3.5,3.6 0,2.6 -2.3,4.4 -5.8,4.4 -2.7,0 -4.8,-1 -5.8,-2.4 z"
             id="path224"
             style="fill:#ffffff;fill-opacity:1;stroke:#ffffff;stroke-width:20.405;stroke-linecap:butt;stroke-linejoin:miter;stroke-miterlimit:2;stroke-dasharray:none;stroke-opacity:1;paint-order:stroke fill markers" />
        </g>
      </g>
      <path
         id="path21759"
         d="m -22.59628,21.05424 v 1.03392 h -3.53256 v -5.53578 h 1.1847 v 4.50186 z"
         style="fill:#ffffff;fill-opacity:1;stroke:#ffffff;stroke-width:4.39523;stroke-linecap:butt;stroke-linejoin:miter;stroke-miterlimit:2;stroke-dasharray:none;stroke-opacity:1;paint-order:stroke fill markers" />
      <path
         d="m -20.399,20.129 h 1.8309 l -0.9047,-2.5418 z m 2.154,1.0124 h -2.4771 l -0.34465,0.94778 h -1.2924 l 2.1325,-5.5359 h 1.4863 l 2.1325,5.5359 h -1.2924 z"
         stroke-width="0.2154"
         id="path21761"
         style="fill:#ffffff;fill-opacity:1;stroke:#ffffff;stroke-width:4.39523;stroke-linecap:butt;stroke-linejoin:miter;stroke-miterlimit:2;stroke-dasharray:none;stroke-opacity:1;paint-order:stroke fill markers" />
      <path
         id="path21763"
         d="m -13.98028,22.08816 v -5.53578 h 1.1847 v 2.17554 h 2.60634 v -2.17554 h 1.1847 v 5.53578 h -1.1847 v -2.32632 h -2.60634 v 2.32632 z"
         style="fill:#ffffff;fill-opacity:1;stroke:#ffffff;stroke-width:4.39523;stroke-linecap:butt;stroke-linejoin:miter;stroke-miterlimit:2;stroke-dasharray:none;stroke-opacity:1;paint-order:stroke fill markers" />
      <g
         transform="matrix(0.2154,0,0,0.2154,-56.371,-9.231)"
         id="g21767"
         style="fill:#ffffff;fill-opacity:1;stroke:#ffffff;stroke-width:20.405;stroke-linecap:butt;stroke-linejoin:miter;stroke-miterlimit:2;stroke-dasharray:none;stroke-opacity:1;paint-order:stroke fill markers">
        <path
           d="m 237.2,124.2 c -4.7,0 -7.8,3.6 -7.8,8.4 0,4.8 3,8.4 7.8,8.4 4.7,0 7.8,-3.7 7.8,-8.4 0,-4.8 -3.1,-8.4 -7.8,-8.4 m 0,-4.9 c 7.8,0 13.4,5.5 13.4,13.3 0,7.7 -5.7,13.3 -13.4,13.3 -7.7,0 -13.4,-5.6 -13.4,-13.3 -0.1,-7.7 5.6,-13.3 13.4,-13.3"
           id="path21765"
           style="fill:#ffffff;fill-opacity:1;stroke:#ffffff;stroke-width:20.405;stroke-linecap:butt;stroke-linejoin:miter;stroke-miterlimit:2;stroke-dasharray:none;stroke-opacity:1;paint-order:stroke fill markers" />
      </g>
      <path
         id="path21769"
         d="m 3.25172,22.08816 v -3.9849 l -1.55088,3.9849 H 1.18388 l -1.57242,-3.9849 v 3.9849 H -1.5517 v -5.53578 h 1.63704 l 1.35702,3.46794 1.33548,-3.46794 h 1.65858 v 5.53578 z"
         style="fill:#ffffff;fill-opacity:1;stroke:#ffffff;stroke-width:4.39523;stroke-linecap:butt;stroke-linejoin:miter;stroke-miterlimit:2;stroke-dasharray:none;stroke-opacity:1;paint-order:stroke fill markers" />
      <path
         id="path21771"
         d="M 6.71966,17.56476 V 18.771 h 2.67096 v 1.01238 H 6.71966 v 1.2924 h 2.73558 v 1.01238 H 5.53496 v -5.53578 h 3.92028 v 1.01238 z"
         style="fill:#ffffff;fill-opacity:1;stroke:#ffffff;stroke-width:4.39523;stroke-linecap:butt;stroke-linejoin:miter;stroke-miterlimit:2;stroke-dasharray:none;stroke-opacity:1;paint-order:stroke fill markers" />
      <g
         transform="matrix(0.2154,0,0,0.2154,-56.371,-9.231)"
         id="g21775"
         style="fill:#ffffff;fill-opacity:1;stroke:#ffffff;stroke-width:20.405;stroke-linecap:butt;stroke-linejoin:miter;stroke-miterlimit:2;stroke-dasharray:none;stroke-opacity:1;paint-order:stroke fill markers">
        <path
           d="m 321,137.6 c 1.8,1.9 4.6,3.5 8.2,3.5 3,0 4.5,-1.4 4.5,-2.9 0,-1.9 -2.2,-2.6 -5.2,-3.3 -4.2,-1 -9.6,-2.1 -9.6,-7.9 0,-4.3 3.7,-7.7 9.7,-7.7 4.1,0 7.5,1.2 10,3.6 l -3,4 c -2.1,-1.9 -4.9,-2.8 -7.4,-2.8 -2.5,0 -3.8,1.1 -3.8,2.6 0,1.7 2.2,2.3 5.1,3 4.2,1 9.6,2.2 9.6,7.9 0,4.7 -3.3,8.2 -10.3,8.2 -4.9,0 -8.5,-1.7 -10.9,-4.1 z"
           id="path21773"
           style="fill:#ffffff;fill-opacity:1;stroke:#ffffff;stroke-width:20.405;stroke-linecap:butt;stroke-linejoin:miter;stroke-miterlimit:2;stroke-dasharray:none;stroke-opacity:1;paint-order:stroke fill markers" />
      </g>
      <path
         id="path21777"
         d="m 21.7115,22.08816 -0.9693,-3.79104 -0.9693,3.79104 h -1.24932 l -1.59396,-5.53578 h 1.33548 l 0.9693,4.00644 1.05546,-4.00644 h 0.90468 l 1.05546,4.00644 0.9693,-4.00644 h 1.31394 l -1.57242,5.53578 z"
         style="fill:#ffffff;fill-opacity:1;stroke:#ffffff;stroke-width:4.39523;stroke-linecap:butt;stroke-linejoin:miter;stroke-miterlimit:2;stroke-dasharray:none;stroke-opacity:1;paint-order:stroke fill markers" />
      <path
         id="path21779"
         d="M 26.27798,17.56476 V 18.771 h 2.67096 v 1.01238 h -2.67096 v 1.2924 h 2.73558 v 1.01238 h -3.92028 v -5.53578 h 3.92028 v 1.01238 z"
         style="fill:#ffffff;fill-opacity:1;stroke:#ffffff;stroke-width:4.39523;stroke-linecap:butt;stroke-linejoin:miter;stroke-miterlimit:2;stroke-dasharray:none;stroke-opacity:1;paint-order:stroke fill markers" />
      <path
         id="path21781"
         d="M 31.12448,17.56476 V 18.771 h 2.67096 v 1.01238 h -2.67096 v 1.2924 h 2.73558 v 1.01238 h -3.92028 v -5.53578 h 3.92028 v 1.01238 z"
         style="fill:#ffffff;fill-opacity:1;stroke:#ffffff;stroke-width:4.39523;stroke-linecap:butt;stroke-linejoin:miter;stroke-miterlimit:2;stroke-dasharray:none;stroke-opacity:1;paint-order:stroke fill markers" />
      <path
         id="path21783"
         d="m 38.85734,16.55238 v 1.03392 h -1.6155 v 4.50186 h -1.1847 V 17.5863 h -1.6155 v -1.03392 z"
         style="fill:#ffffff;fill-opacity:1;stroke:#ffffff;stroke-width:4.39523;stroke-linecap:butt;stroke-linejoin:miter;stroke-miterlimit:2;stroke-dasharray:none;stroke-opacity:1;paint-order:stroke fill markers" />
      <g
         transform="matrix(0.2154,0,0,0.2154,-56.371,-9.231)"
         id="g21789"
         style="fill:#ffffff;fill-opacity:1;stroke:#ffffff;stroke-width:20.405;stroke-linecap:butt;stroke-linejoin:miter;stroke-miterlimit:2;stroke-dasharray:none;stroke-opacity:1;paint-order:stroke fill markers">
        <path
           d="m 454.2,132.6 c 0,-7.9 6,-13.3 13.5,-13.3 5.9,0 9.1,3.1 10.9,6.3 l -4.7,2.3 c -1.1,-2.1 -3.4,-3.7 -6.2,-3.7 -4.5,0 -7.9,3.6 -7.9,8.4 0,4.9 3.4,8.4 7.9,8.4 2.9,0 5.2,-1.6 6.2,-3.7 l 4.7,2.3 c -1.9,3.2 -5.1,6.3 -10.9,6.3 -7.5,0 -13.5,-5.4 -13.5,-13.3"
           id="path21785"
           style="fill:#ffffff;fill-opacity:1;stroke:#ffffff;stroke-width:20.405;stroke-linecap:butt;stroke-linejoin:miter;stroke-miterlimit:2;stroke-dasharray:none;stroke-opacity:1;paint-order:stroke fill markers" />
        <path
           d="m 494.1,124.2 c -4.7,0 -7.8,3.6 -7.8,8.4 0,4.8 3,8.4 7.8,8.4 4.7,0 7.8,-3.7 7.8,-8.4 0,-4.8 -3.1,-8.4 -7.8,-8.4 m 0,-4.9 c 7.8,0 13.4,5.5 13.4,13.3 0,7.7 -5.7,13.3 -13.4,13.3 -7.7,0 -13.4,-5.6 -13.4,-13.3 0,-7.7 5.6,-13.3 13.4,-13.3"
           id="path21787"
           style="fill:#ffffff;fill-opacity:1;stroke:#ffffff;stroke-width:20.405;stroke-linecap:butt;stroke-linejoin:miter;stroke-miterlimit:2;stroke-dasharray:none;stroke-opacity:1;paint-order:stroke fill markers" />
      </g>
      <path
         id="path21791"
         d="m 58.58798,22.08816 v -3.9849 l -1.55088,3.9849 h -0.51696 l -1.57242,-3.9849 v 3.9849 h -1.16316 v -5.53578 h 1.63704 l 1.35702,3.46794 1.33548,-3.46794 h 1.65858 v 5.53578 z"
         style="fill:#ffffff;fill-opacity:1;stroke:#ffffff;stroke-width:4.39523;stroke-linecap:butt;stroke-linejoin:miter;stroke-miterlimit:2;stroke-dasharray:none;stroke-opacity:1;paint-order:stroke fill markers" />
      <g
         transform="matrix(0.2154,0,0,0.2154,-56.371,-9.231)"
         id="g21795"
         style="fill:#ffffff;fill-opacity:1;stroke:#ffffff;stroke-width:20.405;stroke-linecap:butt;stroke-linejoin:miter;stroke-miterlimit:2;stroke-dasharray:none;stroke-opacity:1;paint-order:stroke fill markers">
        <path
           d="m 555.6,124.4 h -5.8 v 7.1 h 5.8 c 2.2,0 3.8,-1.4 3.8,-3.5 0,-2.1 -1.6,-3.6 -3.8,-3.6 m -11.3,-4.7 h 12 c 5.6,0 8.6,3.8 8.6,8.3 0,4.5 -3.1,8.2 -8.6,8.2 h -6.5 v 9.2 h -5.5 z"
           id="path21793"
           style="fill:#ffffff;fill-opacity:1;stroke:#ffffff;stroke-width:20.405;stroke-linecap:butt;stroke-linejoin:miter;stroke-miterlimit:2;stroke-dasharray:none;stroke-opacity:1;paint-order:stroke fill markers" />
      </g>
      <path
         d="m 66.818,20.129 h 1.8309 l -0.9047,-2.5418 z m 2.154,1.0124 h -2.4771 l -0.34465,0.94778 h -1.2924 l 2.1325,-5.5359 h 1.4863 l 2.1325,5.5359 h -1.2924 z"
         stroke-width="0.2154"
         id="path21797"
         style="fill:#ffffff;fill-opacity:1;stroke:#ffffff;stroke-width:4.39523;stroke-linecap:butt;stroke-linejoin:miter;stroke-miterlimit:2;stroke-dasharray:none;stroke-opacity:1;paint-order:stroke fill markers" />
      <path
         id="path21799"
         d="m 72.28742,22.08816 h -1.16316 v -5.53578 h 1.20624 l 2.56326,3.59718 v -3.59718 h 1.1847 v 5.53578 h -1.14162 l -2.64942,-3.70488 z"
         style="fill:#ffffff;fill-opacity:1;stroke:#ffffff;stroke-width:4.39523;stroke-linecap:butt;stroke-linejoin:miter;stroke-miterlimit:2;stroke-dasharray:none;stroke-opacity:1;paint-order:stroke fill markers" />
      <path
         id="path21801"
         d="m 79.89104,22.08816 v -2.2617 l 2.11092,-3.27408 h -1.33548 l -1.35702,2.24016 -1.37856,-2.24016 h -1.35702 l 2.13246,3.27408 v 2.2617 z"
         style="fill:#ffffff;fill-opacity:1;stroke:#ffffff;stroke-width:4.39523;stroke-linecap:butt;stroke-linejoin:miter;stroke-miterlimit:2;stroke-dasharray:none;stroke-opacity:1;paint-order:stroke fill markers" />
      <path
         class="st0"
         d="m -30.43684,8.06562 c 0.40926,2.39094 2.21862,3.51102 4.54494,3.51102 2.39094,0 3.96336,-1.03392 3.96336,-3.1233 0,-1.96014 -1.16316,-2.8002 -4.13568,-3.7695 -2.54172,-0.79698 -4.9542,-1.63704 -4.9542,-4.6311 0,-3.231 2.54172,-4.37262 5.0619,-4.37262 2.97252,0 5.08344,1.20624 5.42808,4.35108 l -1.46472,0.02154 c -0.3231,-2.30478 -1.70166,-3.16638 -3.94182,-3.16638 -2.0463,0 -3.59718,0.94776 -3.59718,3.05868 0,2.08938 1.59396,2.67096 4.32954,3.53256 2.67096,0.84006 4.78188,1.85244 4.78188,4.80342 0,3.0156 -2.34786,4.45878 -5.53578,4.45878 -3.231,0 -5.36346,-1.70166 -5.83734,-4.69572 z"
         fill="#005e2c"
         id="path21803"
         style="fill:#ffffff;fill-opacity:1;stroke:#ffffff;stroke-width:4.39523;stroke-linecap:butt;stroke-linejoin:miter;stroke-miterlimit:2;stroke-dasharray:none;stroke-opacity:1;paint-order:stroke fill markers" />
      <path
         class="st0"
         d="m -1.1633,-2.9412 4.5235,12.623 h -9.047 z m -0.77546,-1.3786 -6.1606,16.737 h 1.4432 l 0.51697,-1.4217 h 9.9948 l 0.51697,1.4217 h 1.4432 l -6.1606,-16.737 z"
         stroke-width="0.2154"
         id="path21805"
         style="fill:#ffffff;fill-opacity:1;stroke:#ffffff;stroke-width:4.39523;stroke-linecap:butt;stroke-linejoin:miter;stroke-miterlimit:2;stroke-dasharray:none;stroke-opacity:1;paint-order:stroke fill markers" />
      <path
         id="path21807"
         class="st0"
         d="m -14.9065,12.2013 h 1.2924 V -3.04902 h 4.35108 v -1.27086 h -9.97302 v 1.27086 h 4.32954 z"
         style="fill:#ffffff;fill-opacity:1;stroke:#ffffff;stroke-width:4.39523;stroke-linecap:butt;stroke-linejoin:miter;stroke-miterlimit:2;stroke-dasharray:none;stroke-opacity:1;paint-order:stroke fill markers" />
      <g
         transform="matrix(0.2154,0,0,0.2154,-56.371,-9.231)"
         id="g21811"
         style="fill:#ffffff;fill-opacity:1;stroke:#ffffff;stroke-width:20.405;stroke-linecap:butt;stroke-linejoin:miter;stroke-miterlimit:2;stroke-dasharray:none;stroke-opacity:1;paint-order:stroke fill markers">
        <path
           class="st0"
           d="m 351.9,99.7 -18.7,-35 c 9.3,-3.2 14,-11.2 14,-20.2 0,-11.7 -7.8,-21.7 -23.5,-21.7 h -29.6 v 76.7 h 6 V 28.6 H 323 c 10.8,0 18,6.6 18,15.9 0,9.3 -7.2,15.9 -18,15.9 h -10.5 v 5.8 h 11.2 c 1.1,0 2.2,-0.1 3.2,-0.2 l 18,33.7 z"
           fill="#005e2c"
           id="path21809"
           style="fill:#ffffff;fill-opacity:1;stroke:#ffffff;stroke-width:20.405;stroke-linecap:butt;stroke-linejoin:miter;stroke-miterlimit:2;stroke-dasharray:none;stroke-opacity:1;paint-order:stroke fill markers" />
      </g>
      <path
         id="path21813"
         class="st0"
         d="m 24.9425,12.2013 h 1.2924 V -3.04902 h 4.32954 v -1.27086 h -9.97302 v 1.27086 h 4.35108 z"
         style="fill:#ffffff;fill-opacity:1;stroke:#ffffff;stroke-width:4.39523;stroke-linecap:butt;stroke-linejoin:miter;stroke-miterlimit:2;stroke-dasharray:none;stroke-opacity:1;paint-order:stroke fill markers" />
      <path
         id="path21815"
         class="st0"
         d="m 33.70928,-4.31988 h -1.63704 l 5.55732,8.05596 -5.88042,8.44368 -0.02154,0.04308 h 1.63704 l 5.0619,-7.4313 5.08344,7.40976 v 0.02154 h 1.6155 l -5.88042,-8.5083 5.53578,-7.99134 0.02154,-0.04308 h -1.63704 l -4.7388,6.97896 -4.69572,-6.97896 z"
         style="fill:#ffffff;fill-opacity:1;stroke:#ffffff;stroke-width:4.39523;stroke-linecap:butt;stroke-linejoin:miter;stroke-miterlimit:2;stroke-dasharray:none;stroke-opacity:1;paint-order:stroke fill markers" />
      <g
         fill="#808285"
         id="g21853"
         style="fill:#ffffff;fill-opacity:1;stroke:#ffffff;stroke-width:4.39523;stroke-linecap:butt;stroke-linejoin:miter;stroke-miterlimit:2;stroke-dasharray:none;stroke-opacity:1;paint-order:stroke fill markers">
        <path
           id="path21817"
           class="st1"
           transform="matrix(0.2154,0,0,0.2154,-56.371,-9.231)"
           d="m 148.4,173 h -6.2 V 161 H 139 v 14.8 h 9.4 z"
           style="fill:#ffffff;fill-opacity:1;stroke:#ffffff;stroke-width:20.405;stroke-linecap:butt;stroke-linejoin:miter;stroke-miterlimit:2;stroke-dasharray:none;stroke-opacity:1;paint-order:stroke fill markers" />
        <path
           id="path21819"
           class="st1"
           style="fill:#ffffff;fill-opacity:1;stroke:#ffffff;stroke-width:4.39523;stroke-linecap:butt;stroke-linejoin:miter;stroke-miterlimit:2;stroke-dasharray:none;stroke-opacity:1;paint-order:stroke fill markers"
           d="m -23.759001,25.448999 h 0.68929 v 3.188 h -0.68929 z" />
        <path
           class="st1"
           d="m -20.7223,28.05474 c 0.25848,0 0.40926,-0.15078 0.40926,-0.38772 0,-0.19386 -0.15078,-0.36618 -0.40926,-0.36618 h -0.88314 v 0.7539 z m -0.02154,-1.31394 c 0.23694,0 0.36618,-0.15078 0.36618,-0.34464 0,-0.19386 -0.15078,-0.34464 -0.36618,-0.34464 h -0.84006 v 0.71082 h 0.84006 z m -1.52934,-1.2924 h 1.68012 c 0.60312,0 0.92622,0.38772 0.92622,0.81852 0,0.40926 -0.25848,0.66774 -0.56004,0.73236 0.34464,0.04308 0.60312,0.38772 0.60312,0.77544 0,0.47388 -0.3231,0.8616 -0.92622,0.8616 h -1.7232 z"
           id="path21821"
           style="fill:#ffffff;fill-opacity:1;stroke:#ffffff;stroke-width:4.39523;stroke-linecap:butt;stroke-linejoin:miter;stroke-miterlimit:2;stroke-dasharray:none;stroke-opacity:1;paint-order:stroke fill markers" />
        <path
           class="st1"
           d="m -17.53438,26.02998 h -0.71082 v 0.88314 h 0.71082 c 0.28002,0 0.47388,-0.17232 0.47388,-0.4308 0,-0.28002 -0.2154,-0.45234 -0.47388,-0.45234 m -0.2154,1.46472 h -0.49542 v 1.14162 h -0.68928 V 25.4484 h 1.48626 c 0.66774,0 1.077,0.4308 1.077,1.03392 0,0.56004 -0.34464,0.8616 -0.68928,0.94776 l 0.71082,1.20624 h -0.77544 z"
           id="path21823"
           style="fill:#ffffff;fill-opacity:1;stroke:#ffffff;stroke-width:4.39523;stroke-linecap:butt;stroke-linejoin:miter;stroke-miterlimit:2;stroke-dasharray:none;stroke-opacity:1;paint-order:stroke fill markers" />
        <path
           id="path21825"
           class="st1"
           transform="matrix(0.2154,0,0,0.2154,-56.371,-9.231)"
           d="M 199.3,173.1 H 192 v -3.5 h 7.2 v -2.7 H 192 v -3.2 h 7.3 V 161 h -10.4 v 14.8 h 10.4 z"
           style="fill:#ffffff;fill-opacity:1;stroke:#ffffff;stroke-width:20.405;stroke-linecap:butt;stroke-linejoin:miter;stroke-miterlimit:2;stroke-dasharray:none;stroke-opacity:1;paint-order:stroke fill markers" />
        <g
           transform="matrix(0.2154,0,0,0.2154,-56.371,-9.231)"
           id="g21829"
           style="fill:#ffffff;fill-opacity:1;stroke:#ffffff;stroke-width:20.405;stroke-linecap:butt;stroke-linejoin:miter;stroke-miterlimit:2;stroke-dasharray:none;stroke-opacity:1;paint-order:stroke fill markers">
          <path
             class="st1"
             d="m 214.9,173 c 2.9,0 4.6,-2.1 4.6,-4.6 0,-2.6 -1.6,-4.6 -4.6,-4.6 h -2.7 v 9.3 h 2.7 z m -5.8,-12 h 5.8 c 4.6,0 7.9,3 7.9,7.4 0,4.5 -3.2,7.4 -7.9,7.4 h -5.8 z"
             fill="#808285"
             id="path21827"
             style="fill:#ffffff;fill-opacity:1;stroke:#ffffff;stroke-width:20.405;stroke-linecap:butt;stroke-linejoin:miter;stroke-miterlimit:2;stroke-dasharray:none;stroke-opacity:1;paint-order:stroke fill markers" />
        </g>
        <path
           id="path21831"
           class="st1"
           transform="matrix(0.2154,0,0,0.2154,-56.371,-9.231)"
           d="M 236.3,173.1 H 229 v -3.5 h 7.1 v -2.7 H 229 v -3.2 h 7.3 V 161 h -10.5 v 14.8 h 10.5 z"
           style="fill:#ffffff;fill-opacity:1;stroke:#ffffff;stroke-width:20.405;stroke-linecap:butt;stroke-linejoin:miter;stroke-miterlimit:2;stroke-dasharray:none;stroke-opacity:1;paint-order:stroke fill markers" />
        <g
           transform="matrix(0.2154,0,0,0.2154,-56.371,-9.231)"
           id="g21837"
           style="fill:#ffffff;fill-opacity:1;stroke:#ffffff;stroke-width:20.405;stroke-linecap:butt;stroke-linejoin:miter;stroke-miterlimit:2;stroke-dasharray:none;stroke-opacity:1;paint-order:stroke fill markers">
          <path
             class="st1"
             d="m 246,163.7 h -3.3 v 4.1 h 3.3 c 1.2,0 2.2,-0.8 2.2,-2 0,-1.3 -0.9,-2.1 -2.2,-2.1 m -6.5,-2.7 h 6.9 c 3.2,0 5,2.2 5,4.8 0,2.6 -1.8,4.7 -5,4.7 h -3.8 v 5.3 h -3.2 V 161 Z"
             id="path21833"
             style="fill:#ffffff;fill-opacity:1;stroke:#ffffff;stroke-width:20.405;stroke-linecap:butt;stroke-linejoin:miter;stroke-miterlimit:2;stroke-dasharray:none;stroke-opacity:1;paint-order:stroke fill markers" />
          <path
             class="st1"
             d="m 254.2,161 h 3.2 v 8.8 c 0,2.1 1.1,3.5 3.4,3.5 2.3,0 3.4,-1.4 3.4,-3.5 V 161 h 3.2 v 8.9 c 0,3.7 -2.1,6.2 -6.6,6.2 -4.5,0 -6.6,-2.5 -6.6,-6.2 z"
             id="path21835"
             style="fill:#ffffff;fill-opacity:1;stroke:#ffffff;stroke-width:20.405;stroke-linecap:butt;stroke-linejoin:miter;stroke-miterlimit:2;stroke-dasharray:none;stroke-opacity:1;paint-order:stroke fill markers" />
        </g>
        <path
           id="path21839"
           class="st1"
           style="fill:#ffffff;fill-opacity:1;stroke:#ffffff;stroke-width:4.39523;stroke-linecap:butt;stroke-linejoin:miter;stroke-miterlimit:2;stroke-dasharray:none;stroke-opacity:1;paint-order:stroke fill markers"
           d="m 2.0246999,25.448999 h 0.68929 v 3.188 h -0.68929 z" />
        <g
           transform="matrix(0.2154,0,0,0.2154,-56.371,-9.231)"
           id="g21851"
           style="fill:#ffffff;fill-opacity:1;stroke:#ffffff;stroke-width:20.405;stroke-linecap:butt;stroke-linejoin:miter;stroke-miterlimit:2;stroke-dasharray:none;stroke-opacity:1;paint-order:stroke fill markers">
          <path
             class="st1"
             d="m 278.7,171.3 c 1,1.1 2.7,2 4.7,2 1.7,0 2.6,-0.8 2.6,-1.7 0,-1.1 -1.3,-1.5 -3,-1.9 -2.4,-0.6 -5.5,-1.2 -5.5,-4.5 0,-2.5 2.1,-4.5 5.6,-4.5 2.4,0 4.3,0.7 5.8,2.1 l -1.8,2.3 c -1.2,-1.1 -2.8,-1.6 -4.2,-1.6 -1.4,0 -2.2,0.6 -2.2,1.5 0,1 1.2,1.3 3,1.7 2.4,0.6 5.6,1.3 5.6,4.6 0,2.7 -1.9,4.8 -5.9,4.8 -2.8,0 -4.9,-1 -6.3,-2.4 z"
             id="path21841"
             style="fill:#ffffff;fill-opacity:1;stroke:#ffffff;stroke-width:20.405;stroke-linecap:butt;stroke-linejoin:miter;stroke-miterlimit:2;stroke-dasharray:none;stroke-opacity:1;paint-order:stroke fill markers" />
          <path
             class="st1"
             d="m 298.2,173.3 c 6.1,-4.5 7.8,-6 7.8,-7.8 0,-1.3 -1.2,-1.9 -2.4,-1.9 -1.7,0 -3,0.7 -4,1.7 l -1.8,-2.1 c 1.4,-1.7 3.6,-2.4 5.7,-2.4 3.2,0 5.7,1.8 5.7,4.7 0,2.5 -2.1,4.7 -6.1,7.5 h 6.2 v 2.8 h -11.1 z"
             id="path21843"
             style="fill:#ffffff;fill-opacity:1;stroke:#ffffff;stroke-width:20.405;stroke-linecap:butt;stroke-linejoin:miter;stroke-miterlimit:2;stroke-dasharray:none;stroke-opacity:1;paint-order:stroke fill markers" />
          <path
             class="st1"
             d="m 318.1,163.6 c -2.1,0 -2.9,2.1 -2.9,4.8 0,2.7 0.8,4.9 2.9,4.9 2.1,0 2.9,-2.1 2.9,-4.9 0,-2.7 -0.8,-4.8 -2.9,-4.8 m 0,-2.8 c 4.2,0 6.1,3.8 6.1,7.6 0,3.8 -1.9,7.7 -6.1,7.7 -4.2,0 -6.1,-3.8 -6.1,-7.7 0,-3.9 1.9,-7.6 6.1,-7.6"
             id="path21845"
             style="fill:#ffffff;fill-opacity:1;stroke:#ffffff;stroke-width:20.405;stroke-linecap:butt;stroke-linejoin:miter;stroke-miterlimit:2;stroke-dasharray:none;stroke-opacity:1;paint-order:stroke fill markers" />
          <path
             class="st1"
             d="m 332.7,163.6 c -2.1,0 -2.9,2.1 -2.9,4.8 0,2.7 0.8,4.9 2.9,4.9 2.1,0 2.9,-2.1 2.9,-4.9 0,-2.7 -0.8,-4.8 -2.9,-4.8 m 0,-2.8 c 4.2,0 6.1,3.8 6.1,7.6 0,3.8 -1.9,7.7 -6.1,7.7 -4.2,0 -6.1,-3.8 -6.1,-7.7 0,-3.9 1.8,-7.6 6.1,-7.6"
             id="path21847"
             style="fill:#ffffff;fill-opacity:1;stroke:#ffffff;stroke-width:20.405;stroke-linecap:butt;stroke-linejoin:miter;stroke-miterlimit:2;stroke-dasharray:none;stroke-opacity:1;paint-order:stroke fill markers" />
          <path
             class="st1"
             d="m 342.4,171.6 c 1,1.1 2.6,1.7 4.1,1.7 1.8,0 2.8,-0.8 2.8,-1.9 0,-1.2 -0.9,-1.8 -3,-1.8 h -1.8 v -2.8 h 1.8 c 1.6,0 2.7,-0.5 2.7,-1.6 0,-1.2 -1.2,-1.8 -2.8,-1.8 -1.4,0 -2.7,0.6 -3.8,1.6 l -1.6,-2 c 1.2,-1.4 3.1,-2.4 5.7,-2.4 3.5,0 5.6,1.6 5.6,4 0,1.9 -1.6,3.1 -3.2,3.4 1.5,0.2 3.5,1.3 3.5,3.6 0,2.6 -2.3,4.4 -5.8,4.4 -2.7,0 -4.8,-1 -5.8,-2.4 z"
             id="path21849"
             style="fill:#ffffff;fill-opacity:1;stroke:#ffffff;stroke-width:20.405;stroke-linecap:butt;stroke-linejoin:miter;stroke-miterlimit:2;stroke-dasharray:none;stroke-opacity:1;paint-order:stroke fill markers" />
        </g>
      </g>
    </g>
  </g>
  <g
     fill="#ffffff"
     aria-label="Container Platform"
     id="g266"
     transform="matrix(1.4086968,0,0,1.4086968,267.77929,4.4517377)"
     style="fill:url(#linearGradient20089);fill-opacity:1">
    <g
       aria-label="FruitApp
demo"
       id="text3400"
       style="font-size:26.1364px;line-height:1;fill:url(#linearGradient22951);fill-opacity:1;stroke-width:0.700082">
      <path
         d="m 159.77244,26.144251 q -0.575,0 -0.96704,-0.392046 -0.39205,-0.392046 -0.39205,-0.967047 V 7.0908151 q 0,-0.6011372 0.39205,-0.9670468 0.39204,-0.392046 0.96704,-0.392046 h 11.81366 q 0.60113,0 0.96704,0.3659096 0.36591,0.3397732 0.36591,0.914774 0,0.5488644 -0.36591,0.8886376 -0.36591,0.3397732 -0.96704,0.3397732 h -10.45456 v 6.3511453 h 7.50114 q 0.575,0 0.94091,0.36591 0.39205,0.339773 0.39205,0.888637 0,0.548865 -0.39205,0.914774 -0.36591,0.339773 -0.94091,0.339773 h -7.50114 v 7.684102 q 0,0.575001 -0.39205,0.967047 -0.39205,0.392046 -0.96705,0.392046 z"
         style="font-weight:bold;font-family:Comfortaa;-inkscape-font-specification:'Comfortaa Bold';fill:url(#linearGradient22927);fill-opacity:1"
         id="path18868" />
      <path
         d="m 183.13839,11.690822 q 1.38523,0 2.16932,0.418182 0.78409,0.418182 0.78409,1.045456 0,0.182955 -0.0261,0.261364 -0.23522,0.836365 -1.04545,0.836365 -0.13068,0 -0.39205,-0.05227 -1.04545,-0.182955 -1.69886,-0.182955 -1.88183,0 -3.03183,0.862501 -1.15,0.862502 -1.15,2.32614 v 7.631829 q 0,0.627273 -0.33977,0.967047 -0.31364,0.339773 -0.96705,0.339773 -0.62727,0 -0.96705,-0.313637 -0.33977,-0.339773 -0.33977,-0.993183 V 13.15446 q 0,-0.627274 0.33977,-0.967047 0.33978,-0.339773 0.96705,-0.339773 1.30682,0 1.30682,1.30682 v 0.496592 q 0.78409,-0.914774 1.93409,-1.437502 1.15001,-0.522728 2.45683,-0.522728 z"
         style="font-weight:bold;font-family:Comfortaa;-inkscape-font-specification:'Comfortaa Bold';fill:url(#linearGradient22929);fill-opacity:1"
         id="path18870" />
      <path
         d="m 200.62364,11.821504 q 0.60114,0 0.96705,0.365909 0.36591,0.36591 0.36591,0.967047 v 11.656834 q 0,0.575001 -0.36591,0.967047 -0.36591,0.36591 -0.96705,0.36591 -0.575,0 -0.96705,-0.36591 -0.36591,-0.392046 -0.36591,-0.967047 v -0.2875 q -0.83636,0.836365 -1.98636,1.30682 -1.15,0.444319 -2.45682,0.444319 -1.80341,0 -3.24092,-0.784092 -1.4375,-0.784092 -2.24773,-2.273867 -0.81023,-1.515911 -0.81023,-3.63296 V 13.15446 q 0,-0.575001 0.36591,-0.94091 0.39205,-0.392046 0.96705,-0.392046 0.575,0 0.94091,0.392046 0.39205,0.365909 0.39205,0.94091 v 6.429554 q 0,2.117049 1.12386,3.214778 1.15,1.071592 3.03182,1.071592 1.09773,0 1.98637,-0.444319 0.91478,-0.444319 1.41137,-1.202274 0.52272,-0.757956 0.52272,-1.698866 V 13.15446 q 0,-0.601137 0.36591,-0.967047 0.39205,-0.365909 0.96705,-0.365909 z"
         style="font-weight:bold;font-family:Comfortaa;-inkscape-font-specification:'Comfortaa Bold';fill:url(#linearGradient22931);fill-opacity:1"
         id="path18872" />
      <path
         d="m 208.25545,26.144251 q -0.575,0 -0.96705,-0.36591 -0.36591,-0.392046 -0.36591,-0.967047 V 13.180596 q 0,-0.601137 0.36591,-0.967046 0.39205,-0.36591 0.96705,-0.36591 0.60114,0 0.96705,0.36591 0.36591,0.365909 0.36591,0.967046 v 11.630698 q 0,0.575001 -0.36591,0.967047 -0.36591,0.36591 -0.96705,0.36591 z m 0,-16.6227507 q -0.70568,0 -1.22841,-0.4965916 -0.49659,-0.522728 -0.49659,-1.2284108 0,-0.7056828 0.49659,-1.2022744 0.52273,-0.522728 1.22841,-0.522728 0.70568,0 1.20227,0.522728 0.52273,0.4965916 0.52273,1.2022744 0,0.7056828 -0.52273,1.2284108 -0.49659,0.4965916 -1.20227,0.4965916 z"
         style="font-weight:bold;font-family:Comfortaa;-inkscape-font-specification:'Comfortaa Bold';fill:url(#linearGradient22933);fill-opacity:1"
         id="path18874" />
      <path
         d="m 220.6441,23.530611 q 0.47046,0 0.78409,0.365909 0.33978,0.36591 0.33978,0.940911 0,0.575001 -0.44432,0.94091 -0.41818,0.36591 -1.09773,0.36591 h -0.47045 q -1.28069,0 -2.35228,-0.65341 -1.04546,-0.679547 -1.64659,-1.829548 -0.60114,-1.150002 -0.60114,-2.587504 v -6.455691 h -1.20228 q -0.54886,0 -0.88863,-0.313636 -0.33978,-0.313637 -0.33978,-0.784092 0,-0.522728 0.33978,-0.836365 0.33977,-0.313637 0.88863,-0.313637 h 1.20228 V 8.6067263 q 0,-0.5750008 0.36591,-0.9409104 0.36591,-0.3659096 0.94091,-0.3659096 0.575,0 0.94091,0.3659096 0.36591,0.3659096 0.36591,0.9409104 v 3.7636417 h 2.22159 q 0.54887,0 0.88864,0.313637 0.33977,0.313637 0.33977,0.836365 0,0.470455 -0.33977,0.784092 -0.33977,0.313636 -0.88864,0.313636 h -2.22159 v 6.455691 q 0,1.045456 0.575,1.751139 0.575,0.705683 1.41137,0.705683 z"
         style="font-weight:bold;font-family:Comfortaa;-inkscape-font-specification:'Comfortaa Bold';fill:url(#linearGradient22935);fill-opacity:1"
         id="path18876" />
      <path
         d="m 240.56001,24.236294 q 0.13069,0.339773 0.13069,0.575 0,0.548865 -0.39205,0.940911 -0.39205,0.392046 -0.96705,0.392046 -0.39204,0 -0.75795,-0.209091 -0.33978,-0.235228 -0.49659,-0.627274 l -1.46364,-3.659096 h -9.38297 l -1.48977,3.659096 q -0.18296,0.392046 -0.52273,0.627274 -0.33978,0.209091 -0.73182,0.209091 -0.575,0 -0.96705,-0.392046 -0.36591,-0.418183 -0.36591,-0.967047 0,-0.261364 0.13068,-0.601137 l 7.34433,-17.5375247 q 0.39205,-0.914774 1.28069,-0.914774 0.94091,0 1.28068,0.914774 z m -4.86137,-4.835234 -3.7375,-9.304559 -3.81592,9.304559 z"
         style="font-weight:bold;font-family:Comfortaa;-inkscape-font-specification:'Comfortaa Bold';fill:url(#linearGradient22937);fill-opacity:1"
         id="path18878" />
      <path
         d="m 250.59637,11.743094 q 2.01251,0 3.6591,0.967047 1.67273,0.940911 2.61364,2.61364 0.94091,1.646593 0.94091,3.685233 0,2.038639 -0.88864,3.711368 -0.8625,1.646594 -2.40455,2.587504 -1.51591,0.94091 -3.39773,0.94091 -1.51591,0 -2.82273,-0.627273 -1.30682,-0.627274 -2.22159,-1.751139 v 7.056828 q 0,0.601137 -0.36591,0.967047 -0.36591,0.36591 -0.96705,0.36591 -0.575,0 -0.96705,-0.36591 -0.36591,-0.36591 -0.36591,-0.967047 V 19.009014 q 0,-2.03864 0.94091,-3.685233 0.96705,-1.672729 2.58751,-2.61364 1.64659,-0.967047 3.65909,-0.967047 z m 0,12.153426 q 1.30682,0 2.35228,-0.627273 1.07159,-0.65341 1.67273,-1.751139 0.62727,-1.123865 0.62727,-2.509094 0,-1.38523 -0.62727,-2.509095 -0.60114,-1.123865 -1.67273,-1.751139 -1.04546,-0.65341 -2.35228,-0.65341 -1.30682,0 -2.37841,0.65341 -1.04546,0.627274 -1.64659,1.751139 -0.60114,1.123865 -0.60114,2.509095 0,1.385229 0.60114,2.509094 0.60113,1.097729 1.64659,1.751139 1.07159,0.627273 2.37841,0.627273 z"
         style="font-weight:bold;font-family:Comfortaa;-inkscape-font-specification:'Comfortaa Bold';fill:url(#linearGradient22939);fill-opacity:1"
         id="path18880" />
      <path
         d="m 268.97024,11.743094 q 2.0125,0 3.65909,0.967047 1.67273,0.940911 2.61364,2.61364 0.94091,1.646593 0.94091,3.685233 0,2.038639 -0.88863,3.711368 -0.86251,1.646594 -2.40455,2.587504 -1.51591,0.94091 -3.39774,0.94091 -1.51591,0 -2.82273,-0.627273 -1.30682,-0.627274 -2.22159,-1.751139 v 7.056828 q 0,0.601137 -0.36591,0.967047 -0.36591,0.36591 -0.96705,0.36591 -0.575,0 -0.96704,-0.36591 -0.36591,-0.36591 -0.36591,-0.967047 V 19.009014 q 0,-2.03864 0.94091,-3.685233 0.96704,-1.672729 2.5875,-2.61364 1.64659,-0.967047 3.6591,-0.967047 z m 0,12.153426 q 1.30682,0 2.35227,-0.627273 1.07159,-0.65341 1.67273,-1.751139 0.62728,-1.123865 0.62728,-2.509094 0,-1.38523 -0.62728,-2.509095 -0.60114,-1.123865 -1.67273,-1.751139 -1.04545,-0.65341 -2.35227,-0.65341 -1.30682,0 -2.37842,0.65341 -1.04545,0.627274 -1.64659,1.751139 -0.60114,1.123865 -0.60114,2.509095 0,1.385229 0.60114,2.509094 0.60114,1.097729 1.64659,1.751139 1.0716,0.627273 2.37842,0.627273 z"
         style="font-weight:bold;font-family:Comfortaa;-inkscape-font-specification:'Comfortaa Bold';fill:url(#linearGradient22941);fill-opacity:1"
         id="path18882" />
      <path
         d="m 172.13496,32.005583 q 0.60114,0 0.96705,0.365909 0.36591,0.36591 0.36591,0.967047 v 11.918199 q 0,2.038639 -0.96705,3.711369 -0.94091,1.646593 -2.5875,2.61364 -1.62046,0.94091 -3.63296,0.94091 -2.01251,0 -3.68523,-0.94091 -1.6466,-0.967047 -2.58751,-2.61364 -0.94091,-1.67273 -0.94091,-3.711369 0,-2.038639 0.8625,-3.685233 0.88864,-1.672729 2.40455,-2.61364 1.54205,-0.94091 3.42387,-0.94091 1.51591,0 2.82273,0.627274 1.30682,0.627273 2.22159,1.751138 v -7.056828 q 0,-0.601137 0.36591,-0.967047 0.39205,-0.365909 0.96705,-0.365909 z m -5.85455,18.164798 q 1.30682,0 2.35227,-0.627274 1.0716,-0.65341 1.67273,-1.777275 0.60114,-1.123865 0.60114,-2.509094 0,-1.385229 -0.60114,-2.482958 -0.60113,-1.123865 -1.67273,-1.751139 -1.04545,-0.65341 -2.35227,-0.65341 -1.30682,0 -2.37841,0.65341 -1.04546,0.627274 -1.67273,1.751139 -0.60114,1.097729 -0.60114,2.482958 0,1.385229 0.60114,2.509094 0.62727,1.123865 1.67273,1.777275 1.07159,0.627274 2.37841,0.627274 z"
         style="font-weight:bold;font-family:Comfortaa;-inkscape-font-specification:'Comfortaa Bold';fill:url(#linearGradient22943);fill-opacity:1"
         id="path18884" />
      <path
         d="m 191.00542,45.047647 q 0,0.496591 -0.33977,0.836364 -0.33978,0.313637 -0.8625,0.313637 h -9.93184 q 0.2875,1.829548 1.6466,2.953413 1.38523,1.123866 3.37159,1.123866 0.78409,0 1.62046,-0.287501 0.8625,-0.2875 1.41136,-0.705683 0.36591,-0.2875 0.86251,-0.2875 0.49659,0 0.78409,0.261364 0.47045,0.392046 0.47045,0.888638 0,0.470455 -0.41818,0.784092 -0.88864,0.705682 -2.22159,1.150001 -1.30682,0.444319 -2.5091,0.444319 -2.14318,0 -3.84205,-0.914774 -1.69886,-0.94091 -2.66591,-2.587504 -0.94091,-1.646593 -0.94091,-3.737505 0,-2.090912 0.88864,-3.737505 0.91477,-1.67273 2.50909,-2.587504 1.62046,-0.94091 3.6591,-0.94091 2.0125,0 3.47614,0.888638 1.46364,0.888637 2.24773,2.482958 0.78409,1.59432 0.78409,3.659096 z m -6.50796,-4.782962 q -1.90796,0 -3.11024,1.045456 -1.17613,1.045456 -1.48977,2.796595 h 8.70342 q -0.23523,-1.751139 -1.30682,-2.796595 -1.07159,-1.045456 -2.79659,-1.045456 z"
         style="font-weight:bold;font-family:Comfortaa;-inkscape-font-specification:'Comfortaa Bold';fill:url(#linearGradient22945);fill-opacity:1"
         id="path18886" />
      <path
         d="m 209.43159,37.990819 q 2.27387,0 3.6591,1.489774 1.41136,1.489775 1.41136,4.155688 v 7.47501 q 0,0.575001 -0.36591,0.967047 -0.36591,0.36591 -0.96704,0.36591 -0.57501,0 -0.96705,-0.36591 -0.36591,-0.392046 -0.36591,-0.967047 v -7.47501 q 0,-1.59432 -0.81023,-2.404549 -0.78409,-0.836365 -2.11705,-0.836365 -1.35909,0 -2.24773,0.940911 -0.8625,0.94091 -0.8625,2.404549 v 7.370464 q 0,0.575001 -0.36591,0.967047 -0.36591,0.36591 -0.96705,0.36591 -0.575,0 -0.96704,-0.36591 -0.36591,-0.392046 -0.36591,-0.967047 v -7.47501 q 0,-1.59432 -0.81023,-2.404549 -0.78409,-0.836365 -2.11705,-0.836365 -1.38523,0 -2.27387,0.940911 -0.8625,0.94091 -0.8625,2.404549 v 7.370464 q 0,0.575001 -0.36591,0.967047 -0.36591,0.36591 -0.96704,0.36591 -0.575,0 -0.96705,-0.36591 -0.36591,-0.392046 -0.36591,-0.967047 V 39.480593 q 0,-0.601137 0.36591,-0.967046 0.39205,-0.36591 0.96705,-0.36591 0.575,0 0.94091,0.36591 0.36591,0.339773 0.39204,0.914774 0.67955,-0.679547 1.62046,-1.045456 0.94091,-0.392046 2.03864,-0.392046 1.33296,0 2.37841,0.548864 1.07159,0.522728 1.75114,1.515911 0.78409,-0.967047 1.96023,-1.515911 1.17614,-0.548864 2.61364,-0.548864 z"
         style="font-weight:bold;font-family:Comfortaa;-inkscape-font-specification:'Comfortaa Bold';fill:url(#linearGradient22947);fill-opacity:1"
         id="path18888" />
      <path
         d="m 225.40092,52.522657 q -2.09091,0 -3.7375,-0.914774 -1.6466,-0.94091 -2.56137,-2.587504 -0.91477,-1.646593 -0.91477,-3.737505 0,-2.117048 0.91477,-3.763641 0.91477,-1.646594 2.56137,-2.561368 1.64659,-0.94091 3.7375,-0.94091 2.06478,0 3.68523,0.94091 1.6466,0.914774 2.56137,2.561368 0.94091,1.646593 0.94091,3.763641 0,2.090912 -0.91477,3.737505 -0.91478,1.646594 -2.56137,2.587504 -1.62046,0.914774 -3.71137,0.914774 z m 0,-2.352276 q 1.33296,0 2.37841,-0.627274 1.0716,-0.627273 1.6466,-1.725002 0.60113,-1.123865 0.60113,-2.535231 0,-1.411365 -0.60113,-2.535231 -0.575,-1.123865 -1.6466,-1.751138 -1.04545,-0.627274 -2.37841,-0.627274 -1.33295,0 -2.40455,0.627274 -1.04545,0.627273 -1.64659,1.751138 -0.60114,1.123866 -0.60114,2.535231 0,1.411366 0.60114,2.535231 0.60114,1.097729 1.64659,1.725002 1.0716,0.627274 2.40455,0.627274 z"
         style="font-weight:bold;font-family:Comfortaa;-inkscape-font-specification:'Comfortaa Bold';fill:url(#linearGradient22949);fill-opacity:1"
         id="path18890" />
    </g>
  </g>
  <path
     d="m 455.7175,20.838737 c 0.51728,0.01894 1.03537,0.05765 1.53367,0.15321 v -7.346632 c 0,-0.842651 -0.69053,-1.532092 -1.53367,-1.532092 -0.84397,0 -1.5345,0.689441 -1.5345,1.532092 v 7.365578 c 0.4983,-0.09555 1.0164,-0.153208 1.5345,-0.172156 z"
     id="Fill-1"
     fill="#9a8478"
     style="stroke-width:0.306817" />
  <path
     d="m 457.55799,15.169981 c 5.08908,0.132284 8.56405,-0.887086 10.08342,-3.018359 1.36743,-1.905655 0.9876,-4.4151359 0.60775,-5.8679099 -7.06427,1.9056474 -9.74197,6.4149329 -10.69117,8.8862689"
     id="Fill-3"
     fill="#72c067"
     style="stroke-width:0.306817" />
  <path
     d="m 466.50295,30.019976 c -2.70611,-9.4314 -10.48094,-9.622716 -10.80711,-9.622716 -0.30721,0 -8.10102,0.191316 -10.80796,9.622716 -1.34356,4.71611 -3.07111,7.974258 -4.56828,10.830808 -0.30719,0.574775 -0.59538,1.111614 -0.86377,1.667421 11.51731,2.895307 18.48615,14.549934 15.60662,26.051999 -0.6144,2.395577 -1.61277,4.677354 -3.01413,6.747198 1.20977,0.19214 2.43772,0.306766 3.64752,0.306766 3.24452,0 8.17696,-0.843606 12.2861,-3.239184 5.10586,-2.971174 7.67819,-7.552869 7.67819,-13.630456 0,-9.201327 -2.13053,-13.227215 -4.58808,-17.885602 -1.49717,-2.875518 -3.22472,-6.114698 -4.56828,-10.849776 z"
     id="Fill-5"
     fill="#92cb7e"
     style="fill:#3bd528;fill-opacity:1;stroke-width:0.306817" />
  <path
     d="m 397.47669,21.624524 c -0.3984,1.452773 -0.75923,3.962258 0.60739,5.867093 1.51845,2.132087 4.99049,3.151464 10.0765,3.019173 -0.94863,-2.471337 -3.6247,-6.980619 -10.68389,-8.886266"
     id="Fill-7"
     fill="#72c067"
     style="stroke-width:0.306817" />
  <path
     d="m 409.69466,27.454032 c -0.84337,0 -1.53408,0.687894 -1.53408,1.527829 v 6.527993 c 0.63211,0.210397 1.17015,0.382165 1.53408,0.535029 0.36392,-0.133962 0.90197,-0.324632 1.53408,-0.535029 v -6.527993 c 0,-0.839935 -0.6907,-1.527829 -1.53408,-1.527829"
     id="Fill-9"
     fill="#9a8478"
     style="stroke-width:0.306817" />
  <path
     d="m 429.3309,42.533953 c -0.59477,-3.475607 -2.0714,-5.920281 -4.37212,-7.275695 -5.59963,-3.303101 -14.55423,0.439485 -14.65158,0.477272 -0.38277,0.172504 -0.82411,0.172504 -1.20687,0 -0.0965,-0.03778 -9.41575,-3.933165 -14.99556,-0.266976 -2.87654,1.909899 -4.35316,5.63277 -4.35316,11.074963 0,5.672199 1.18873,11.095495 3.45151,15.697331 2.0516,4.20096 4.81346,7.256802 7.72793,8.631109 2.76187,1.298731 5.38845,0.935644 7.76589,-1.049831 0.57662,-0.47727 1.40074,-0.47727 1.95591,0 1.18955,0.973433 2.43684,1.565709 3.74022,1.737394 -4.54453,-10.903275 0.63272,-23.430581 11.60098,-27.95602 1.09305,-0.439485 2.20587,-0.802571 3.33685,-1.069547 z"
     id="Fill-11"
     fill="#ee6e6f"
     style="fill:#bf0e10;fill-opacity:1;stroke-width:0.306817" />
  <path
     d="m 434.23996,41.874391 c -11.85736,0 -21.47713,9.619775 -21.47713,21.47713 0,11.858181 9.61977,21.477132 21.47713,21.477132 11.85735,0 21.47713,-9.619777 21.47713,-21.477132 -0.0222,-11.835094 -9.61978,-21.454045 -21.47713,-21.47713"
     id="Fill-13"
     fill="#f4854c"
     style="fill:#ef5506;fill-opacity:1;stroke-width:0.306817" />
  <path
     d="m 436.31831,54.517907 c 0,-0.01224 -0.75791,-1.396283 -2.08822,-1.396283 -1.34376,0 -2.08991,1.384094 -2.08991,1.396283 -0.23585,0.481954 -0.83262,0.674573 -1.32949,0.445381 -0.49772,-0.228378 -0.69664,-0.806237 -0.45995,-1.288188 0,0 0,-0.01224 0.0113,-0.01224 0.0377,-0.0837 0.92073,-1.745758 2.711,-2.287043 -0.0377,-0.09672 -0.0747,-0.180428 -0.12504,-0.264952 -0.3223,-0.590048 -0.85694,-0.867191 -1.6904,-0.867191 -0.54723,0 -0.99458,-0.43319 -0.99458,-0.963096 0,-0.529903 0.44735,-0.963093 0.99458,-0.963093 1.37985,0 2.3501,0.517713 2.9838,1.228046 0.63452,-0.710333 1.60479,-1.228046 2.98462,-1.228046 0.54641,0 0.9946,0.43319 0.9946,0.963093 0,0.529906 -0.44819,0.963096 -0.9946,0.963096 -0.83344,0 -1.36809,0.277143 -1.69122,0.867191 -0.0495,0.08453 -0.0874,0.180427 -0.12419,0.264952 1.79028,0.541285 2.67324,2.203332 2.71018,2.287043 0.24843,0.469764 0.0504,1.059811 -0.43477,1.300383 -0.48513,0.241385 -1.09448,0.04796 -1.34292,-0.420997 z"
     id="Fill-15"
     fill="#594a41"
     style="stroke-width:0.306817" />
  <g
     transform="matrix(2.2751947,0,0,2.2751947,131.10148,17.21886)"
     id="g20300">
    <polygon
       transform="matrix(0.2154,0,0,0.2154,-56.371,-9.231)"
       points="156.8,140.6 156.8,145.4 140.4,145.4 140.4,119.7 145.9,119.7 145.9,140.6 "
       id="polygon20190" />
    <path
       d="m -20.399,20.129 h 1.8309 l -0.9047,-2.5418 z m 2.154,1.0124 h -2.4771 l -0.34465,0.94778 h -1.2924 l 2.1325,-5.5359 h 1.4863 l 2.1325,5.5359 h -1.2924 z"
       stroke-width="0.2154"
       id="path20192" />
    <polygon
       transform="matrix(0.2154,0,0,0.2154,-56.371,-9.231)"
       points="196.8,145.4 196.8,119.7 202.3,119.7 202.3,129.8 214.4,129.8 214.4,119.7 219.9,119.7 219.9,145.4 214.4,145.4 214.4,134.6 202.3,134.6 202.3,145.4 "
       id="polygon20194" />
    <g
       transform="matrix(0.2154,0,0,0.2154,-56.371,-9.231)"
       id="g20198">
      <path
         d="m 237.2,124.2 c -4.7,0 -7.8,3.6 -7.8,8.4 0,4.8 3,8.4 7.8,8.4 4.7,0 7.8,-3.7 7.8,-8.4 0,-4.8 -3.1,-8.4 -7.8,-8.4 m 0,-4.9 c 7.8,0 13.4,5.5 13.4,13.3 0,7.7 -5.7,13.3 -13.4,13.3 -7.7,0 -13.4,-5.6 -13.4,-13.3 -0.1,-7.7 5.6,-13.3 13.4,-13.3"
         id="path20196" />
    </g>
    <polygon
       transform="matrix(0.2154,0,0,0.2154,-56.371,-9.231)"
       points="282.3,145.4 276.8,145.4 276.8,126.9 269.6,145.4 267.2,145.4 259.9,126.9 259.9,145.4 254.5,145.4 254.5,119.7 262.1,119.7 268.4,135.8 274.6,119.7 282.3,119.7 "
       id="polygon20200" />
    <polygon
       transform="matrix(0.2154,0,0,0.2154,-56.371,-9.231)"
       points="292.9,124.4 292.9,130 305.3,130 305.3,134.7 292.9,134.7 292.9,140.7 305.6,140.7 305.6,145.4 287.4,145.4 287.4,119.7 305.6,119.7 305.6,124.4 "
       id="polygon20202" />
    <g
       transform="matrix(0.2154,0,0,0.2154,-56.371,-9.231)"
       id="g20206">
      <path
         d="m 321,137.6 c 1.8,1.9 4.6,3.5 8.2,3.5 3,0 4.5,-1.4 4.5,-2.9 0,-1.9 -2.2,-2.6 -5.2,-3.3 -4.2,-1 -9.6,-2.1 -9.6,-7.9 0,-4.3 3.7,-7.7 9.7,-7.7 4.1,0 7.5,1.2 10,3.6 l -3,4 c -2.1,-1.9 -4.9,-2.8 -7.4,-2.8 -2.5,0 -3.8,1.1 -3.8,2.6 0,1.7 2.2,2.3 5.1,3 4.2,1 9.6,2.2 9.6,7.9 0,4.7 -3.3,8.2 -10.3,8.2 -4.9,0 -8.5,-1.7 -10.9,-4.1 z"
         id="path20204" />
    </g>
    <polygon
       transform="matrix(0.2154,0,0,0.2154,-56.371,-9.231)"
       points="368.3,145.4 362.5,145.4 358,127.8 353.5,145.4 347.7,145.4 340.3,119.7 346.5,119.7 351,138.3 355.9,119.7 360.1,119.7 365,138.3 369.5,119.7 375.6,119.7 "
       id="polygon20208" />
    <polygon
       transform="matrix(0.2154,0,0,0.2154,-56.371,-9.231)"
       points="383.7,124.4 383.7,130 396.1,130 396.1,134.7 383.7,134.7 383.7,140.7 396.4,140.7 396.4,145.4 378.2,145.4 378.2,119.7 396.4,119.7 396.4,124.4 "
       id="polygon20210" />
    <polygon
       transform="matrix(0.2154,0,0,0.2154,-56.371,-9.231)"
       points="406.2,124.4 406.2,130 418.6,130 418.6,134.7 406.2,134.7 406.2,140.7 418.9,140.7 418.9,145.4 400.7,145.4 400.7,119.7 418.9,119.7 418.9,124.4 "
       id="polygon20212" />
    <polygon
       transform="matrix(0.2154,0,0,0.2154,-56.371,-9.231)"
       points="429.1,145.4 429.1,124.5 421.6,124.5 421.6,119.7 442.1,119.7 442.1,124.5 434.6,124.5 434.6,145.4 "
       id="polygon20214" />
    <g
       transform="matrix(0.2154,0,0,0.2154,-56.371,-9.231)"
       id="g20220">
      <path
         d="m 454.2,132.6 c 0,-7.9 6,-13.3 13.5,-13.3 5.9,0 9.1,3.1 10.9,6.3 l -4.7,2.3 c -1.1,-2.1 -3.4,-3.7 -6.2,-3.7 -4.5,0 -7.9,3.6 -7.9,8.4 0,4.9 3.4,8.4 7.9,8.4 2.9,0 5.2,-1.6 6.2,-3.7 l 4.7,2.3 c -1.9,3.2 -5.1,6.3 -10.9,6.3 -7.5,0 -13.5,-5.4 -13.5,-13.3"
         id="path20216" />
      <path
         d="m 494.1,124.2 c -4.7,0 -7.8,3.6 -7.8,8.4 0,4.8 3,8.4 7.8,8.4 4.7,0 7.8,-3.7 7.8,-8.4 0,-4.8 -3.1,-8.4 -7.8,-8.4 m 0,-4.9 c 7.8,0 13.4,5.5 13.4,13.3 0,7.7 -5.7,13.3 -13.4,13.3 -7.7,0 -13.4,-5.6 -13.4,-13.3 0,-7.7 5.6,-13.3 13.4,-13.3"
         id="path20218" />
    </g>
    <polygon
       transform="matrix(0.2154,0,0,0.2154,-56.371,-9.231)"
       points="539.2,145.4 533.7,145.4 533.7,126.9 526.5,145.4 524.1,145.4 516.8,126.9 516.8,145.4 511.4,145.4 511.4,119.7 519,119.7 525.3,135.8 531.5,119.7 539.2,119.7 "
       id="polygon20222" />
    <g
       transform="matrix(0.2154,0,0,0.2154,-56.371,-9.231)"
       id="g20226">
      <path
         d="m 555.6,124.4 h -5.8 v 7.1 h 5.8 c 2.2,0 3.8,-1.4 3.8,-3.5 0,-2.1 -1.6,-3.6 -3.8,-3.6 m -11.3,-4.7 h 12 c 5.6,0 8.6,3.8 8.6,8.3 0,4.5 -3.1,8.2 -8.6,8.2 h -6.5 v 9.2 h -5.5 z"
         id="path20224" />
    </g>
    <path
       d="m 66.818,20.129 h 1.8309 l -0.9047,-2.5418 z m 2.154,1.0124 h -2.4771 l -0.34465,0.94778 h -1.2924 l 2.1325,-5.5359 h 1.4863 l 2.1325,5.5359 h -1.2924 z"
       stroke-width="0.2154"
       id="path20228" />
    <polygon
       transform="matrix(0.2154,0,0,0.2154,-56.371,-9.231)"
       points="591.9,119.7 597.5,119.7 609.4,136.4 609.4,119.7 614.9,119.7 614.9,145.4 609.6,145.4 597.3,128.2 597.3,145.4 591.9,145.4 "
       id="polygon20230" />
    <polygon
       transform="matrix(0.2154,0,0,0.2154,-56.371,-9.231)"
       points="636.2,119.7 629.9,130.1 623.5,119.7 617.2,119.7 627.1,134.9 627.1,145.4 632.6,145.4 632.6,134.9 642.4,119.7 "
       id="polygon20232" />
    <g
       fill="#005e2c"
       id="g20258">
      <polygon
         class="st0"
         transform="matrix(0.2154,0,0,0.2154,-56.371,-9.231)"
         points="52.2,99.9 52.2,75 30.6,62.5 9,75 9,99.9 30.6,112.3 "
         id="polygon20234" />
      <path
         class="st0"
         d="m -37.976,21.723 4.3942,2.5418 4.3942,-2.5418 v -5.0835 l -4.3942,-2.5418 -4.3942,2.5418 z m 4.3942,3.1018 -4.8897,-2.8218 v -5.6651 l 4.8897,-2.8218 4.8897,2.8218 v 5.6651 z"
         stroke-width="0.2154"
         id="path20236" />
      <polygon
         class="st0"
         transform="matrix(0.2154,0,0,0.2154,-56.371,-9.231)"
         points="55.7,105.5 78.4,118.6 78.4,144.9 55.7,158 32.9,144.9 32.9,118.6 "
         id="polygon20238" />
      <path
         class="st0"
         d="m -43.382,12.137 4.4158,2.5418 4.3942,-2.5418 V 7.075 L -38.9662,4.5332 -43.382,7.075 Z m 4.4158,3.1234 -4.9112,-2.8218 V 6.7735 l 4.8897,-2.8218 4.8897,2.8218 v 5.6651 z"
         stroke-width="0.2154"
         id="path20240" />
      <g
         transform="matrix(0.2154,0,0,0.2154,-56.371,-9.231)"
         id="g20244">
        <path
           class="st0"
           d="m 120.4,80.3 c 1.9,11.1 10.3,16.3 21.1,16.3 11.1,0 18.4,-4.8 18.4,-14.5 0,-9.1 -5.4,-13 -19.2,-17.5 -11.8,-3.7 -23,-7.6 -23,-21.5 0,-15 11.8,-20.3 23.5,-20.3 13.8,0 23.6,5.6 25.2,20.2 l -6.8,0.1 c -1.5,-10.7 -7.9,-14.7 -18.3,-14.7 -9.5,0 -16.7,4.4 -16.7,14.2 0,9.7 7.4,12.4 20.1,16.4 12.4,3.9 22.2,8.6 22.2,22.3 0,14 -10.9,20.7 -25.7,20.7 -15,0 -24.9,-7.9 -27.1,-21.8 z"
           fill="#005e2c"
           id="path20242" />
      </g>
      <path
         class="st0"
         d="m -1.1633,-2.9412 4.5235,12.623 h -9.047 z m -0.77546,-1.3786 -6.1606,16.737 h 1.4432 l 0.51697,-1.4217 h 9.9948 l 0.51697,1.4217 h 1.4432 l -6.1606,-16.737 z"
         stroke-width="0.2154"
         id="path20246" />
      <polygon
         class="st0"
         transform="matrix(0.2154,0,0,0.2154,-56.371,-9.231)"
         points="218.7,22.8 172.4,22.8 172.4,28.7 192.5,28.7 192.5,99.5 198.5,99.5 198.5,28.7 218.7,28.7 "
         id="polygon20248" />
      <g
         transform="matrix(0.2154,0,0,0.2154,-56.371,-9.231)"
         id="g20252">
        <path
           class="st0"
           d="m 351.9,99.7 -18.7,-35 c 9.3,-3.2 14,-11.2 14,-20.2 0,-11.7 -7.8,-21.7 -23.5,-21.7 h -29.6 v 76.7 h 6 V 28.6 H 323 c 10.8,0 18,6.6 18,15.9 0,9.3 -7.2,15.9 -18,15.9 h -10.5 v 5.8 h 11.2 c 1.1,0 2.2,-0.1 3.2,-0.2 l 18,33.7 z"
           fill="#005e2c"
           id="path20250" />
      </g>
      <polygon
         class="st0"
         transform="matrix(0.2154,0,0,0.2154,-56.371,-9.231)"
         points="403.6,22.8 357.3,22.8 357.3,28.7 377.5,28.7 377.5,99.5 383.5,99.5 383.5,28.7 403.6,28.7 "
         id="polygon20254" />
      <polygon
         class="st0"
         transform="matrix(0.2154,0,0,0.2154,-56.371,-9.231)"
         points="469.7,22.8 462.1,22.8 440.1,55.2 418.3,22.8 418.2,22.8 410.6,22.8 436.4,60.2 409.1,99.4 409,99.6 416.6,99.6 440.1,65.1 463.7,99.5 463.7,99.6 471.2,99.6 443.9,60.1 469.6,23 "
         id="polygon20256" />
    </g>
    <g
       fill="#808285"
       id="g20298">
      <polygon
         class="st1"
         transform="matrix(0.2154,0,0,0.2154,-56.371,-9.231)"
         points="148.4,173 142.2,173 142.2,161 139,161 139,175.8 148.4,175.8 "
         id="polygon20260" />
      <rect
         class="st1"
         x="-23.759001"
         y="25.448999"
         width="0.68928999"
         height="3.188"
         stroke-width="0.2154"
         id="rect20262" />
      <g
         transform="matrix(0.2154,0,0,0.2154,-56.371,-9.231)"
         id="g20268">
        <path
           class="st1"
           d="m 165.5,173.1 c 1.2,0 1.9,-0.7 1.9,-1.8 0,-0.9 -0.7,-1.7 -1.9,-1.7 h -4.1 v 3.5 z m -0.1,-6.1 c 1.1,0 1.7,-0.7 1.7,-1.6 0,-0.9 -0.7,-1.6 -1.7,-1.6 h -3.9 v 3.3 h 3.9 z m -7.1,-6 h 7.8 c 2.8,0 4.3,1.8 4.3,3.8 0,1.9 -1.2,3.1 -2.6,3.4 1.6,0.2 2.8,1.8 2.8,3.6 0,2.2 -1.5,4 -4.3,4 h -8 z"
           id="path20264" />
        <path
           class="st1"
           d="M 180.3,163.7 H 177 v 4.1 h 3.3 c 1.3,0 2.2,-0.8 2.2,-2 0,-1.3 -1,-2.1 -2.2,-2.1 m -1,6.8 H 177 v 5.3 h -3.2 V 161 h 6.9 c 3.1,0 5,2 5,4.8 0,2.6 -1.6,4 -3.2,4.4 l 3.3,5.6 h -3.6 z"
           id="path20266" />
      </g>
      <polygon
         class="st1"
         transform="matrix(0.2154,0,0,0.2154,-56.371,-9.231)"
         points="199.3,173.1 192,173.1 192,169.6 199.2,169.6 199.2,166.9 192,166.9 192,163.7 199.3,163.7 199.3,161 188.9,161 188.9,175.8 199.3,175.8 "
         id="polygon20270" />
      <g
         transform="matrix(0.2154,0,0,0.2154,-56.371,-9.231)"
         id="g20274">
        <path
           class="st1"
           d="m 214.9,173 c 2.9,0 4.6,-2.1 4.6,-4.6 0,-2.6 -1.6,-4.6 -4.6,-4.6 h -2.7 v 9.3 h 2.7 z m -5.8,-12 h 5.8 c 4.6,0 7.9,3 7.9,7.4 0,4.5 -3.2,7.4 -7.9,7.4 h -5.8 z"
           fill="#808285"
           id="path20272" />
      </g>
      <polygon
         class="st1"
         transform="matrix(0.2154,0,0,0.2154,-56.371,-9.231)"
         points="236.3,173.1 229,173.1 229,169.6 236.1,169.6 236.1,166.9 229,166.9 229,163.7 236.3,163.7 236.3,161 225.8,161 225.8,175.8 236.3,175.8 "
         id="polygon20276" />
      <g
         transform="matrix(0.2154,0,0,0.2154,-56.371,-9.231)"
         id="g20282">
        <path
           class="st1"
           d="m 246,163.7 h -3.3 v 4.1 h 3.3 c 1.2,0 2.2,-0.8 2.2,-2 0,-1.3 -0.9,-2.1 -2.2,-2.1 m -6.5,-2.7 h 6.9 c 3.2,0 5,2.2 5,4.8 0,2.6 -1.8,4.7 -5,4.7 h -3.8 v 5.3 h -3.2 V 161 Z"
           id="path20278" />
        <path
           class="st1"
           d="m 254.2,161 h 3.2 v 8.8 c 0,2.1 1.1,3.5 3.4,3.5 2.3,0 3.4,-1.4 3.4,-3.5 V 161 h 3.2 v 8.9 c 0,3.7 -2.1,6.2 -6.6,6.2 -4.5,0 -6.6,-2.5 -6.6,-6.2 z"
           id="path20280" />
      </g>
      <rect
         class="st1"
         x="2.0246999"
         y="25.448999"
         width="0.68928999"
         height="3.188"
         stroke-width="0.2154"
         id="rect20284" />
      <g
         transform="matrix(0.2154,0,0,0.2154,-56.371,-9.231)"
         id="g20296">
        <path
           class="st1"
           d="m 278.7,171.3 c 1,1.1 2.7,2 4.7,2 1.7,0 2.6,-0.8 2.6,-1.7 0,-1.1 -1.3,-1.5 -3,-1.9 -2.4,-0.6 -5.5,-1.2 -5.5,-4.5 0,-2.5 2.1,-4.5 5.6,-4.5 2.4,0 4.3,0.7 5.8,2.1 l -1.8,2.3 c -1.2,-1.1 -2.8,-1.6 -4.2,-1.6 -1.4,0 -2.2,0.6 -2.2,1.5 0,1 1.2,1.3 3,1.7 2.4,0.6 5.6,1.3 5.6,4.6 0,2.7 -1.9,4.8 -5.9,4.8 -2.8,0 -4.9,-1 -6.3,-2.4 z"
           id="path20286" />
        <path
           class="st1"
           d="m 298.2,173.3 c 6.1,-4.5 7.8,-6 7.8,-7.8 0,-1.3 -1.2,-1.9 -2.4,-1.9 -1.7,0 -3,0.7 -4,1.7 l -1.8,-2.1 c 1.4,-1.7 3.6,-2.4 5.7,-2.4 3.2,0 5.7,1.8 5.7,4.7 0,2.5 -2.1,4.7 -6.1,7.5 h 6.2 v 2.8 h -11.1 z"
           id="path20288" />
        <path
           class="st1"
           d="m 318.1,163.6 c -2.1,0 -2.9,2.1 -2.9,4.8 0,2.7 0.8,4.9 2.9,4.9 2.1,0 2.9,-2.1 2.9,-4.9 0,-2.7 -0.8,-4.8 -2.9,-4.8 m 0,-2.8 c 4.2,0 6.1,3.8 6.1,7.6 0,3.8 -1.9,7.7 -6.1,7.7 -4.2,0 -6.1,-3.8 -6.1,-7.7 0,-3.9 1.9,-7.6 6.1,-7.6"
           id="path20290" />
        <path
           class="st1"
           d="m 332.7,163.6 c -2.1,0 -2.9,2.1 -2.9,4.8 0,2.7 0.8,4.9 2.9,4.9 2.1,0 2.9,-2.1 2.9,-4.9 0,-2.7 -0.8,-4.8 -2.9,-4.8 m 0,-2.8 c 4.2,0 6.1,3.8 6.1,7.6 0,3.8 -1.9,7.7 -6.1,7.7 -4.2,0 -6.1,-3.8 -6.1,-7.7 0,-3.9 1.8,-7.6 6.1,-7.6"
           id="path20292" />
        <path
           class="st1"
           d="m 342.4,171.6 c 1,1.1 2.6,1.7 4.1,1.7 1.8,0 2.8,-0.8 2.8,-1.9 0,-1.2 -0.9,-1.8 -3,-1.8 h -1.8 v -2.8 h 1.8 c 1.6,0 2.7,-0.5 2.7,-1.6 0,-1.2 -1.2,-1.8 -2.8,-1.8 -1.4,0 -2.7,0.6 -3.8,1.6 l -1.6,-2 c 1.2,-1.4 3.1,-2.4 5.7,-2.4 3.5,0 5.6,1.6 5.6,4 0,1.9 -1.6,3.1 -3.2,3.4 1.5,0.2 3.5,1.3 3.5,3.6 0,2.6 -2.3,4.4 -5.8,4.4 -2.7,0 -4.8,-1 -5.8,-2.4 z"
           id="path20294" />
      </g>
    </g>
  </g>
</svg>
